<?xml version="1.0" encoding="utf-8"?>
<!-- Generator: Adobe Illustrator 21.0.0, SVG Export Plug-In . SVG Version: 6.00 Build 0)  -->
<svg version="1.1" id="Layer_1" xmlns="http://www.w3.org/2000/svg" xmlns:xlink="http://www.w3.org/1999/xlink" x="0px" y="0px"
	 viewBox="0 0 1080 1080" style="enable-background:new 0 0 1080 1080;" xml:space="preserve">
<style type="text/css">
	.st0{fill:#FFC716;}
	.st1{fill:#44ABE0;}
	.st2{fill:none;stroke:#44ABE0;stroke-miterlimit:10;}
	.st3{fill:none;stroke:#44ABE0;stroke-width:0.5717;stroke-miterlimit:10;}
	.st4{fill:#3E3E3E;}
	.st5{fill:#414141;}
	.st6{fill:#676767;}
	.st7{fill:#606161;}
	.st8{fill:#908F8F;}
	.st9{fill:#44ABE0;stroke:#44ABE0;stroke-width:1.6;stroke-miterlimit:10;}
	.st10{fill:none;stroke:#44ABE0;stroke-width:0.1268;stroke-miterlimit:10;}
</style>
<g>
	<path class="st0" d="M680.3,480.9l-58.3-21.4l-17.6,8.3c-13.2,6.3-28.5,6.3-41.7,0l-17.6-8.3L487,480.9
		c-18.2,6.7-31.4,22.5-34.9,41.5l-11.5,63.9h143h143l-11.5-63.9C711.8,503.4,698.5,487.6,680.3,480.9z"/>
	<path class="st1" d="M577.6,503.6c5.2,5.2-10.5,27.2-10.5,51.2s8.3,55.7,19.3,81.4c11,25.7-11,29.1-27.1,29.1
		c-16.1,0-59.6,0-59.6,0L484,678.2l15.7,9.7c0,0,25.3,0,60,0s54.7-16,51.8-36.5c-2.8-20.5-30.9-63.9-29.6-96.9
		c1.3-33,2.2-45.2,7.9-50.9S572.4,498.3,577.6,503.6z"/>
	<path class="st1" d="M94.2,760.3c-4.1,0-7.8-0.4-11.1-1.3s-6.2-2.4-8.5-4.6c-2.4-2.2-4.2-5.1-5.6-8.6c-1.3-3.5-2-8-2-13.5v-44.3
		H55.9v-22.7H67v-23.9h26.5v23.9h22v22.7h-22V728c0,6.1,2.8,9.1,8.5,9.1c4.6,0,9-1.2,13.1-3.5v21.3c-2.8,1.6-5.9,2.9-9.2,3.9
		C102.6,759.8,98.7,760.3,94.2,760.3z"/>
	<path class="st1" d="M161.6,760.5c-4.4,0-8.6-0.6-12.5-1.8c-3.9-1.2-7.3-3.1-10.2-5.5c-2.9-2.4-5.2-5.4-6.9-9
		c-1.7-3.5-2.5-7.6-2.5-12.3v-0.3c0-5.1,0.9-9.5,2.8-13.3c1.9-3.7,4.4-6.8,7.8-9.2s7.3-4.3,11.9-5.5c4.6-1.2,9.7-1.8,15.3-1.8
		c4.8,0,8.9,0.3,12.5,1c3.5,0.7,7,1.6,10.4,2.8V704c0-5.6-1.7-9.8-5.1-12.7c-3.4-2.9-8.4-4.4-15-4.4c-5.1,0-9.6,0.4-13.5,1.3
		c-3.9,0.9-8,2.1-12.3,3.8l-6.6-20.2c5.1-2.2,10.5-4,16-5.4c5.6-1.4,12.3-2.1,20.2-2.1c7.3,0,13.6,0.9,18.7,2.7
		c5.2,1.8,9.4,4.4,12.8,7.8c3.5,3.5,6,7.8,7.7,12.8c1.6,5.1,2.4,10.7,2.4,17v54.2h-25.6v-10.1c-3.3,3.6-7.2,6.5-11.7,8.6
		C173.6,759.4,168.1,760.5,161.6,760.5z M169.6,742.1c6.3,0,11.3-1.5,15.1-4.5c3.8-3,5.7-7,5.7-11.9V721c-2.3-1-4.9-1.9-7.8-2.5
		c-2.8-0.6-5.9-1-9.2-1c-5.7,0-10.2,1.1-13.4,3.3c-3.3,2.2-4.9,5.4-4.9,9.6v0.3c0,3.6,1.3,6.4,4,8.4
		C161.8,741.2,165.3,742.1,169.6,742.1z"/>
	<path class="st1" d="M239.5,631.4H266v127.3h-26.5V631.4z"/>
	<path class="st1" d="M335.3,760.8c-7,0-13.5-1.2-19.4-3.5c-6-2.3-11.2-5.6-15.5-9.9c-4.4-4.3-7.8-9.4-10.2-15.3
		c-2.4-5.9-3.7-12.4-3.7-19.6v-0.3c0-6.6,1.1-12.9,3.4-18.8c2.3-5.9,5.4-11.1,9.5-15.5c4.1-4.4,8.9-7.9,14.6-10.5
		c5.6-2.6,11.9-3.8,18.7-3.8c7.8,0,14.5,1.4,20.2,4.2c5.7,2.8,10.4,6.5,14.2,11.2c3.8,4.7,6.6,10.1,8.4,16.2
		c1.8,6.1,2.7,12.5,2.7,19.1c0,1,0,2.2-0.1,3.3c-0.1,1.2-0.1,2.4-0.3,3.7h-65.1c1.3,6,3.9,10.6,7.9,13.7c4,3.1,9,4.6,14.9,4.6
		c4.4,0,8.4-0.8,11.9-2.3c3.5-1.5,7.1-4,10.8-7.3l15.2,13.4c-4.4,5.5-9.8,9.7-16,12.8C351.1,759.3,343.7,760.8,335.3,760.8z
		 M352.4,704.7c-0.8-5.9-2.9-10.7-6.3-14.4c-3.4-3.7-7.8-5.5-13.4-5.5s-10.1,1.8-13.5,5.4c-3.4,3.6-5.7,8.4-6.7,14.5H352.4z"/>
	<path class="st1" d="M397.9,665.2h26.5v13.4c1.5-2,3.2-3.9,5-5.7c1.8-1.8,3.8-3.4,6-4.8c2.2-1.4,4.6-2.5,7.3-3.3
		c2.7-0.8,5.7-1.2,9.1-1.2c10.1,0,17.9,3.1,23.5,9.2c5.5,6.2,8.3,14.6,8.3,25.5v60.5H457v-52c0-6.3-1.4-11-4.2-14.2
		c-2.8-3.2-6.7-4.8-11.9-4.8c-5.1,0-9.2,1.6-12.1,4.8c-3,3.2-4.4,7.9-4.4,14.2v52h-26.5V665.2z"/>
	<path class="st1" d="M538.1,760.3c-4.1,0-7.8-0.4-11.1-1.3s-6.2-2.4-8.5-4.6c-2.4-2.2-4.2-5.1-5.6-8.6c-1.3-3.5-2-8-2-13.5v-44.3
		h-11.2v-22.7h11.2v-23.9h26.5v23.9h22v22.7h-22V728c0,6.1,2.8,9.1,8.5,9.1c4.6,0,9-1.2,13.1-3.5v21.3c-2.8,1.6-5.9,2.9-9.2,3.9
		C546.4,759.8,542.5,760.3,538.1,760.3z"/>
	<path class="st0" d="M576.4,749.8c-2.8-1.7-5.1-4.9-5.1-9.1c0-5.9,4.5-10.5,10.5-10.5c1.9,0,3.8,0.5,5.2,1.4
		c8.9,5.6,17.8,8.4,25.3,8.4c7.7,0,11.2-2.8,11.2-7v-0.3c0-5.8-9.1-7.7-19.4-10.8c-13.1-3.8-27.9-9.9-27.9-28.1v-0.3
		c0-19,15.3-29.6,34.2-29.6c9.8,0,19.9,2.6,28.9,7.1c3.8,1.9,6.3,5.4,6.3,9.9c0,5.9-4.7,10.5-10.6,10.5c-1.9,0-3.1-0.3-4.9-1.2
		c-7.5-3.7-14.6-5.9-20.2-5.9c-6.5,0-9.8,2.8-9.8,6.5v0.3c0,5.2,8.9,7.7,19,11.2c13.1,4.4,28.3,10.6,28.3,27.7v0.3
		c0,20.8-15.5,30.2-35.8,30.2C600.2,760.5,587.8,757.1,576.4,749.8z"/>
	<path class="st0" d="M669.1,732.2v-44.3h-0.9c-6.3,0-11.3-5.1-11.3-11.3s5.1-11.3,11.3-11.3h0.9v-11.7c0-7.3,5.9-13.3,13.3-13.3
		c7.3,0,13.3,5.9,13.3,13.3v11.7h11.7c6.3,0,11.3,5.1,11.3,11.3s-5.1,11.3-11.3,11.3h-11.7v39.9c0,6.1,2.6,9.1,8.5,9.1
		c0.9,0,2.6-0.2,3.1-0.2c5.9,0,11,4.9,11,11c0,4.7-3.1,8.5-6.8,9.9c-4.9,1.9-9.4,2.6-15.2,2.6C680,760.3,669.1,753.8,669.1,732.2z"
		/>
	<path class="st0" d="M731.5,731.9v-0.3c0-20.4,15.5-29.8,37.7-29.8c9.4,0,16.2,1.6,22.8,3.8V704c0-11-6.8-17.1-20.1-17.1
		c-7.3,0-13.3,1-18.3,2.6c-1.6,0.5-2.6,0.7-3.8,0.7c-6.1,0-11-4.7-11-10.8c0-4.7,3-8.7,7.2-10.3c8.4-3.1,17.4-4.9,29.8-4.9
		c14.5,0,24.9,3.8,31.6,10.5c7,7,10.1,17.3,10.1,29.8V747c0,7.2-5.8,12.7-12.9,12.7c-7.7,0-12.7-5.4-12.7-11v-0.2
		c-6.5,7.2-15.3,11.9-28.3,11.9C746,760.5,731.5,750.3,731.5,731.9z M792.3,725.8V721c-4.5-2.1-10.5-3.5-16.9-3.5
		c-11.3,0-18.3,4.5-18.3,12.9v0.3c0,7.1,5.9,11.3,14.5,11.3C784,742.1,792.3,735.3,792.3,725.8z"/>
	<path class="st0" d="M835.8,712.5v-0.3c0-26.7,20.4-48.7,49-48.7c14.1,0,24.1,3.8,31.9,10.5c1.7,1.4,4.2,4.5,4.2,9.1
		c0,6.6-5.4,11.9-12,11.9c-3.5,0-6.1-1.4-7.7-2.6c-4.7-3.7-9.6-5.9-16.6-5.9c-13.3,0-22.7,11.7-22.7,25.5v0.3
		c0,14.3,9.2,25.8,23.7,25.8c7,0,12.4-2.4,17.4-6.5c1.4-1,4-2.4,7.2-2.4c6.3,0,11.2,5.1,11.2,11.3c0,3.5-1.6,6.3-3.8,8.4
		c-7.8,7.2-17.8,12-33.1,12C856.4,760.8,835.8,739.2,835.8,712.5z"/>
	<path class="st0" d="M939.9,643.6c0-7.3,5.9-13.3,13.3-13.3c7.3,0,13.3,5.9,13.3,13.3v57.9l33.1-31.4c3.8-3.7,7-5.9,11.7-5.9
		c7.1,0,11.7,5.8,11.7,11.9c0,4.5-2.4,8-6.1,11.5l-20.9,18l24.9,33.7c2.3,3.1,3.3,5.6,3.3,8.5c0,7.1-5.8,12-12.4,12
		c-5.2,0-8.4-1.7-11.5-6.1L977,721.7l-10.6,9.6v15.2c0,7.3-5.9,13.3-13.3,13.3c-7.3,0-13.3-5.9-13.3-13.3V643.6z"/>
	
		<rect x="574.1" y="486.5" transform="matrix(0.7071 -0.7071 0.7071 0.7071 -179.8474 558.0295)" class="st1" width="19.2" height="19.2"/>
	<path class="st2" d="M617,475.3"/>
	<path class="st2" d="M554.4,475.3"/>
	<g>
		<path class="st1" d="M568.8,497.5c-0.8,1.2-1.7,2.3-2.6,3.4c-0.9,1.1-1.9,2.1-2.8,3.2l-0.6,0.6l-0.6-0.6c-1.5-1.4-3-2.9-4.4-4.4
			c-1.5-1.5-2.9-2.9-4.3-4.4c-2.8-3-5.6-6.1-8.2-9.3c3.2,2.6,6.3,5.4,9.3,8.2c1.5,1.4,3,2.8,4.4,4.3c1.5,1.4,2.9,2.9,4.4,4.4h-1.2
			c1-1,2.1-1.9,3.2-2.8C566.4,499.2,567.5,498.3,568.8,497.5z"/>
	</g>
	<g>
		<path class="st1" d="M598.4,497.5c1.2,0.8,2.3,1.7,3.4,2.6c1.1,0.9,2.1,1.9,3.2,2.8h-1.2c1.4-1.5,2.9-3,4.4-4.4
			c1.5-1.5,2.9-2.9,4.4-4.3c3-2.8,6.1-5.6,9.3-8.2c-2.6,3.2-5.4,6.3-8.2,9.3c-1.4,1.5-2.8,3-4.3,4.4c-1.4,1.5-2.9,2.9-4.4,4.4
			l-0.6,0.6l-0.6-0.6c-1-1-1.9-2.1-2.8-3.2C600,499.9,599.1,498.7,598.4,497.5z"/>
	</g>
	<path class="st1" d="M517.8,391.7c0-38.9,29.5-70.5,65.9-70.5s65.9,31.6,65.9,70.5S617,464,583.7,464
		C553.5,464,517.8,430.6,517.8,391.7z"/>
	<path class="st0" d="M583.7,440.9c15.6,0,28.3-11.5,28.3-18.8h-56.6C555.4,431.5,568,440.9,583.7,440.9z"/>
</g>
<g>
	<g>
		<path class="st0" d="M1850.5,282.9l-33.3-12.2l-10,4.8c-7.5,3.6-16.3,3.6-23.8,0l-10-4.8l-33.3,12.2c-10.4,3.8-18,12.9-19.9,23.7
			l-6.6,36.5h81.7h81.7l-6.6-36.5C1868.5,295.8,1860.9,286.8,1850.5,282.9z"/>
		<path class="st1" d="M1791.8,295.9c3,3-6,15.6-6,29.3s4.7,31.8,11,46.5c6.3,14.7-6.3,16.6-15.5,16.6s-34.1,0-34.1,0l-9,7.4l9,5.5
			c0,0,14.5,0,34.3,0c19.8,0,31.3-9.1,29.6-20.9s-17.7-36.5-16.9-55.4s1.3-25.9,4.5-29.1S1788.8,292.9,1791.8,295.9z"/>
		<path class="st1" d="M1515.5,442.7c-2.3,0-4.4-0.2-6.3-0.7s-3.5-1.4-4.9-2.6c-1.4-1.3-2.4-2.9-3.2-4.9c-0.8-2-1.1-4.6-1.1-7.7
			v-25.3h-6.4v-13h6.4v-13.7h15.2v13.7h12.6v13h-12.6v22.9c0,3.5,1.6,5.2,4.9,5.2c2.7,0,5.2-0.7,7.5-2v12.2
			c-1.6,0.9-3.4,1.7-5.3,2.2C1520.2,442.4,1518,442.7,1515.5,442.7z"/>
		<path class="st1" d="M1553.9,442.8c-2.5,0-4.9-0.3-7.1-1c-2.2-0.7-4.2-1.7-5.8-3.1c-1.7-1.4-3-3.1-3.9-5.1c-1-2-1.4-4.4-1.4-7
			v-0.2c0-2.9,0.5-5.4,1.6-7.6c1.1-2.1,2.5-3.9,4.4-5.3c1.9-1.4,4.2-2.4,6.8-3.1c2.6-0.7,5.5-1,8.7-1c2.7,0,5.1,0.2,7.1,0.6
			c2,0.4,4,0.9,5.9,1.6v-0.9c0-3.2-1-5.6-2.9-7.3c-1.9-1.7-4.8-2.5-8.6-2.5c-2.9,0-5.5,0.2-7.7,0.7c-2.2,0.5-4.6,1.2-7,2.1
			l-3.8-11.6c2.9-1.3,6-2.3,9.2-3.1c3.2-0.8,7-1.2,11.6-1.2c4.2,0,7.8,0.5,10.7,1.5c3,1,5.4,2.5,7.3,4.4c2,2,3.5,4.4,4.4,7.3
			c0.9,2.9,1.4,6.1,1.4,9.7v31h-14.7V436c-1.9,2.1-4.1,3.7-6.7,4.9C1560.8,442.1,1557.7,442.8,1553.9,442.8z M1558.5,432.3
			c3.6,0,6.5-0.9,8.6-2.6c2.2-1.7,3.2-4,3.2-6.8v-2.7c-1.3-0.6-2.8-1.1-4.4-1.4c-1.6-0.4-3.4-0.5-5.2-0.5c-3.3,0-5.8,0.6-7.7,1.9
			c-1.9,1.3-2.8,3.1-2.8,5.5v0.2c0,2.1,0.8,3.7,2.3,4.8C1554.1,431.7,1556.1,432.3,1558.5,432.3z"/>
		<path class="st1" d="M1598.5,369h15.2v72.8h-15.2V369z"/>
		<path class="st1" d="M1653.2,443c-4,0-7.7-0.7-11.1-2c-3.4-1.3-6.4-3.2-8.9-5.7c-2.5-2.5-4.4-5.4-5.8-8.7
			c-1.4-3.4-2.1-7.1-2.1-11.2v-0.2c0-3.8,0.6-7.4,1.9-10.8c1.3-3.4,3.1-6.3,5.4-8.9c2.3-2.5,5.1-4.5,8.3-6c3.2-1.5,6.8-2.2,10.7-2.2
			c4.5,0,8.3,0.8,11.6,2.4c3.3,1.6,6,3.7,8.1,6.4c2.2,2.7,3.8,5.8,4.8,9.3c1,3.5,1.5,7.1,1.5,10.9c0,0.6,0,1.2,0,1.9
			c0,0.7-0.1,1.4-0.1,2.1h-37.2c0.7,3.5,2.2,6.1,4.5,7.8c2.3,1.8,5.1,2.6,8.5,2.6c2.5,0,4.8-0.4,6.8-1.3c2-0.9,4.1-2.3,6.2-4.2
			l8.7,7.7c-2.5,3.1-5.6,5.6-9.2,7.3C1662.3,442.1,1658.1,443,1653.2,443z M1663,410.8c-0.5-3.4-1.7-6.1-3.6-8.2
			c-1.9-2.1-4.5-3.1-7.7-3.1c-3.2,0-5.8,1-7.7,3.1c-2,2.1-3.2,4.8-3.8,8.3H1663z"/>
		<path class="st1" d="M1689,388.3h15.2v7.6c0.9-1.1,1.8-2.2,2.8-3.3c1-1,2.2-2,3.4-2.8c1.3-0.8,2.7-1.4,4.2-1.9
			c1.5-0.5,3.3-0.7,5.2-0.7c5.8,0,10.3,1.8,13.4,5.3c3.2,3.5,4.7,8.4,4.7,14.6v34.6h-15.2V412c0-3.6-0.8-6.3-2.4-8.1
			c-1.6-1.8-3.9-2.7-6.8-2.7c-2.9,0-5.2,0.9-6.9,2.7c-1.7,1.8-2.5,4.5-2.5,8.1v29.7H1689V388.3z"/>
		<path class="st1" d="M1769.2,442.7c-2.3,0-4.4-0.2-6.3-0.7c-1.9-0.5-3.5-1.4-4.9-2.6c-1.4-1.3-2.4-2.9-3.2-4.9
			c-0.8-2-1.1-4.6-1.1-7.7v-25.3h-6.4v-13h6.4v-13.7h15.2v13.7h12.6v13h-12.6v22.9c0,3.5,1.6,5.2,4.9,5.2c2.7,0,5.2-0.7,7.5-2v12.2
			c-1.6,0.9-3.4,1.7-5.3,2.2C1773.9,442.4,1771.7,442.7,1769.2,442.7z"/>
		<path class="st0" d="M1791.1,436.7c-1.6-1-2.9-2.8-2.9-5.2c0-3.4,2.6-6,6-6c1.1,0,2.2,0.3,3,0.8c5.1,3.2,10.2,4.8,14.5,4.8
			c4.4,0,6.4-1.6,6.4-4v-0.2c0-3.3-5.2-4.4-11.1-6.2c-7.5-2.2-16-5.7-16-16.1v-0.2c0-10.9,8.8-16.9,19.5-16.9
			c5.6,0,11.4,1.5,16.5,4.1c2.2,1.1,3.6,3.1,3.6,5.7c0,3.4-2.7,6-6.1,6c-1.1,0-1.8-0.2-2.8-0.7c-4.3-2.1-8.4-3.4-11.6-3.4
			c-3.7,0-5.6,1.6-5.6,3.7v0.2c0,3,5.1,4.4,10.9,6.4c7.5,2.5,16.2,6.1,16.2,15.9v0.2c0,11.9-8.9,17.2-20.4,17.2
			C1804.7,442.8,1797.6,440.9,1791.1,436.7z"/>
		<path class="st0" d="M1844.1,426.6v-25.3h-0.5c-3.6,0-6.5-2.9-6.5-6.5s2.9-6.5,6.5-6.5h0.5v-6.7c0-4.2,3.4-7.6,7.6-7.6
			c4.2,0,7.6,3.4,7.6,7.6v6.7h6.7c3.6,0,6.5,2.9,6.5,6.5s-2.9,6.5-6.5,6.5h-6.7v22.8c0,3.5,1.5,5.2,4.9,5.2c0.5,0,1.5-0.1,1.8-0.1
			c3.4,0,6.3,2.8,6.3,6.3c0,2.7-1.8,4.9-3.9,5.7c-2.8,1.1-5.4,1.5-8.7,1.5C1850.3,442.7,1844.1,439,1844.1,426.6z"/>
		<path class="st0" d="M1879.8,426.4v-0.2c0-11.7,8.9-17,21.5-17c5.4,0,9.3,0.9,13.1,2.2v-0.9c0-6.3-3.9-9.8-11.5-9.8
			c-4.2,0-7.6,0.6-10.5,1.5c-0.9,0.3-1.5,0.4-2.2,0.4c-3.5,0-6.3-2.7-6.3-6.2c0-2.7,1.7-5,4.1-5.9c4.8-1.8,10-2.8,17-2.8
			c8.3,0,14.3,2.2,18,6c4,4,5.8,9.9,5.8,17v24.3c0,4.1-3.3,7.3-7.4,7.3c-4.4,0-7.3-3.1-7.3-6.3V436c-3.7,4.1-8.8,6.8-16.2,6.8
			C1888,442.8,1879.8,437,1879.8,426.4z M1914.6,422.9v-2.7c-2.6-1.2-6-2-9.7-2c-6.5,0-10.5,2.6-10.5,7.4v0.2c0,4.1,3.4,6.5,8.3,6.5
			C1909.8,432.3,1914.6,428.4,1914.6,422.9z"/>
		<path class="st0" d="M1939.4,415.3v-0.2c0-15.3,11.7-27.8,28-27.8c8.1,0,13.8,2.2,18.2,6c1,0.8,2.4,2.6,2.4,5.2
			c0,3.8-3.1,6.8-6.9,6.8c-2,0-3.5-0.8-4.4-1.5c-2.7-2.1-5.5-3.4-9.5-3.4c-7.6,0-13,6.7-13,14.6v0.2c0,8.2,5.3,14.8,13.6,14.8
			c4,0,7.1-1.4,10-3.7c0.8-0.6,2.3-1.4,4.1-1.4c3.6,0,6.4,2.9,6.4,6.5c0,2-0.9,3.6-2.2,4.8c-4.5,4.1-10.2,6.9-18.9,6.9
			C1951.1,443,1939.4,430.6,1939.4,415.3z"/>
		<path class="st0" d="M1998.9,376c0-4.2,3.4-7.6,7.6-7.6c4.2,0,7.6,3.4,7.6,7.6v33.1l18.9-17.9c2.2-2.1,4-3.4,6.7-3.4
			c4.1,0,6.7,3.3,6.7,6.8c0,2.6-1.4,4.6-3.5,6.6l-12,10.3l14.3,19.2c1.3,1.8,1.9,3.2,1.9,4.9c0,4.1-3.3,6.9-7.1,6.9
			c-3,0-4.8-1-6.6-3.5l-13.3-18.2l-6.1,5.5v8.7c0,4.2-3.4,7.6-7.6,7.6c-4.2,0-7.6-3.4-7.6-7.6V376z"/>
		
			<rect x="1789.8" y="286.1" transform="matrix(0.7071 -0.7071 0.7071 0.7071 319.6071 1354.8555)" class="st1" width="11" height="11"/>
		<path class="st3" d="M1814.3,279.7"/>
		<path class="st3" d="M1778.5,279.7"/>
		<g>
			<path class="st1" d="M1786.7,292.4c-0.9,1.4-2,2.6-3.1,3.8l-0.3,0.4l-0.4-0.4c-1.7-1.6-3.3-3.3-5-5c-1.6-1.7-3.2-3.5-4.7-5.3
				c1.8,1.5,3.6,3.1,5.3,4.7c1.7,1.6,3.4,3.3,5,5h-0.7C1784.1,294.4,1785.4,293.4,1786.7,292.4z"/>
		</g>
		<g>
			<path class="st1" d="M1803.7,292.4c1.4,0.9,2.6,2,3.8,3.1h-0.7c1.6-1.7,3.3-3.3,5-5c1.7-1.6,3.5-3.2,5.3-4.7
				c-1.5,1.8-3.1,3.6-4.7,5.3c-1.6,1.7-3.3,3.4-5,5l-0.4,0.4l-0.3-0.4C1805.6,295,1804.6,293.8,1803.7,292.4z"/>
		</g>
		<path class="st1" d="M1757.6,231.9c0-22.3,16.9-40.3,37.7-40.3c20.8,0,37.7,18,37.7,40.3s-18.6,41.4-37.7,41.4
			C1778,273.3,1757.6,254.2,1757.6,231.9z"/>
		<path class="st0" d="M1795.3,260c8.9,0,16.2-6.6,16.2-10.8h-32.4C1779.1,254.7,1786.3,260,1795.3,260z"/>
	</g>
	<g>
		<g>
			<path class="st1" d="M1640.6,567.6c-2.4,0-4.6-0.3-6.7-1c-2.1-0.7-3.9-1.6-5.5-2.9c-1.6-1.3-2.8-2.9-3.7-4.8
				c-0.9-1.9-1.4-4.1-1.4-6.6v-0.2c0-2.7,0.5-5.1,1.5-7.1c1-2,2.4-3.6,4.2-5c1.8-1.3,3.9-2.3,6.4-2.9c2.5-0.7,5.2-1,8.2-1
				c2.6,0,4.8,0.2,6.7,0.6c1.9,0.4,3.8,0.9,5.6,1.5v-0.8c0-3-0.9-5.3-2.7-6.8c-1.8-1.6-4.5-2.3-8-2.3c-2.7,0-5.2,0.2-7.3,0.7
				c-2.1,0.5-4.3,1.1-6.6,2l-3.6-10.9c2.7-1.2,5.6-2.2,8.6-2.9s6.6-1.1,10.9-1.1c3.9,0,7.3,0.5,10.1,1.4c2.8,1,5.1,2.4,6.9,4.2
				c1.9,1.9,3.2,4.2,4.1,6.9c0.9,2.7,1.3,5.8,1.3,9.1v29.1h-13.8v-5.4c-1.7,1.9-3.8,3.5-6.3,4.6
				C1647.1,567,1644.1,567.6,1640.6,567.6z M1645,557.8c3.4,0,6.1-0.8,8.1-2.4c2-1.6,3-3.7,3-6.4v-2.5c-1.2-0.6-2.6-1-4.2-1.4
				c-1.5-0.3-3.2-0.5-4.9-0.5c-3.1,0-5.5,0.6-7.2,1.8c-1.7,1.2-2.6,2.9-2.6,5.1v0.2c0,1.9,0.7,3.4,2.2,4.5
				C1640.8,557.3,1642.6,557.8,1645,557.8z"/>
			<path class="st1" d="M1698.8,567.5c-2.2,0-4.2-0.2-5.9-0.7c-1.8-0.5-3.3-1.3-4.6-2.5c-1.3-1.2-2.3-2.7-3-4.6
				c-0.7-1.9-1.1-4.3-1.1-7.3v-23.8h-6v-12.2h6v-12.8h14.2v12.8h11.8v12.2h-11.8v21.5c0,3.3,1.5,4.9,4.6,4.9c2.5,0,4.8-0.6,7-1.9
				v11.4c-1.5,0.9-3.2,1.6-5,2.1C1703.2,567.3,1701.1,567.5,1698.8,567.5z"/>
			<path class="st1" d="M1720.9,498.4h15V511h-15V498.4z M1721.3,516.5h14.2v50.2h-14.2V516.5z"/>
			<path class="st1" d="M1751.3,528.7h-5.9V517h5.9v-3.2c0-5.4,1.3-9.5,4-12.2c2.6-2.6,6.5-3.9,11.5-3.9c2.2,0,4.2,0.1,5.8,0.4
				c1.6,0.2,3,0.6,4.4,1v11.8c-1.1-0.4-2.1-0.7-3.1-0.9c-1-0.2-2.1-0.3-3.4-0.3c-3.4,0-5.1,1.8-5.1,5.4v2h11.5v11.6h-11.3v38h-14.2
				V528.7z"/>
			<path class="st0" d="M1784.6,504.9c0-3.9,3.2-7.1,7.1-7.1c3.9,0,7.1,3.2,7.1,7.1V536l17.8-16.8c2.1-2,3.7-3.2,6.3-3.2
				c3.8,0,6.3,3.1,6.3,6.4c0,2.4-1.3,4.3-3.3,6.2l-11.2,9.6l13.4,18.1c1.2,1.7,1.8,3,1.8,4.6c0,3.8-3.1,6.5-6.6,6.5
				c-2.8,0-4.5-0.9-6.2-3.3l-12.4-17.1l-5.7,5.1v8.1c0,3.9-3.2,7.1-7.1,7.1c-3.9,0-7.1-3.2-7.1-7.1V504.9z"/>
			<path class="st0" d="M1839.7,504.9c0-3.9,3.2-7.1,7.1-7.1c3.9,0,7.1,3.2,7.1,7.1v18.7c3.3-4.2,7.5-8,14.7-8
				c10.8,0,17,7.1,17,18.6v25.9c0,3.9-3.2,7.1-7.1,7.1c-3.9,0-7.1-3.2-7.1-7.1v-21.4c0-6.7-3.2-10.2-8.6-10.2
				c-5.4,0-8.9,3.5-8.9,10.2v21.4c0,3.9-3.2,7.1-7.1,7.1c-3.9,0-7.1-3.2-7.1-7.1V504.9z"/>
			<path class="st0" d="M1895,552.3v-0.2c0-10.9,8.3-16,20.2-16c5.1,0,8.7,0.8,12.3,2.1v-0.8c0-5.9-3.6-9.2-10.8-9.2
				c-3.9,0-7.1,0.6-9.8,1.4c-0.8,0.3-1.4,0.4-2.1,0.4c-3.3,0-5.9-2.5-5.9-5.8c0-2.5,1.6-4.7,3.8-5.5c4.5-1.7,9.4-2.6,16-2.6
				c7.8,0,13.4,2.1,16.9,5.6c3.7,3.7,5.4,9.3,5.4,16v22.8c0,3.8-3.1,6.8-6.9,6.8c-4.1,0-6.8-2.9-6.8-5.9v-0.1
				c-3.5,3.8-8.2,6.4-15.2,6.4C1902.7,567.6,1895,562.2,1895,552.3z M1927.6,549v-2.5c-2.4-1.1-5.6-1.9-9.1-1.9
				c-6.1,0-9.8,2.4-9.8,6.9v0.2c0,3.8,3.2,6.1,7.8,6.1C1923.1,557.8,1927.6,554.1,1927.6,549z"/>
			<path class="st0" d="M1955.2,552.5v-23.8h-0.5c-3.4,0-6.1-2.7-6.1-6.1s2.7-6.1,6.1-6.1h0.5v-6.3c0-3.9,3.2-7.1,7.1-7.1
				c3.9,0,7.1,3.2,7.1,7.1v6.3h6.3c3.4,0,6.1,2.7,6.1,6.1s-2.7,6.1-6.1,6.1h-6.3v21.4c0,3.3,1.4,4.9,4.6,4.9c0.5,0,1.4-0.1,1.7-0.1
				c3.2,0,5.9,2.6,5.9,5.9c0,2.5-1.7,4.6-3.6,5.3c-2.6,1-5.1,1.4-8.1,1.4C1961.1,567.5,1955.2,564.1,1955.2,552.5z"/>
			<path class="st0" d="M1991.7,523.1c0-3.9,3.2-7.1,7.1-7.1c3.9,0,7.1,3.2,7.1,7.1v2.2c2.1-4.9,5.4-9.4,9.6-9.4
				c4.4,0,6.9,2.9,6.9,6.9c0,3.7-2.4,6-5.3,6.6c-7.2,1.7-11.2,7.2-11.2,17.3v13.3c0,3.9-3.2,7.1-7.1,7.1c-3.9,0-7.1-3.2-7.1-7.1
				V523.1z"/>
			<path class="st0" d="M2030.6,504.5c0-4.1,3.5-6.6,8-6.6c4.5,0,8,2.5,8,6.6v0.2c0,4.1-3.5,6.7-8,6.7c-4.5,0-8-2.6-8-6.7V504.5z
				 M2031.5,523.1c0-3.9,3.2-7.1,7.1-7.1c3.9,0,7.1,3.2,7.1,7.1v37.1c0,3.9-3.2,7.1-7.1,7.1c-3.9,0-7.1-3.2-7.1-7.1V523.1z"/>
		</g>
		<g>
			<path class="st1" d="M1627.6,605.6h-0.4c-2.1,0-3.8-1.6-3.8-3.7c0-2.1,1.7-3.8,3.8-3.8h0.4v-2c0-3.5,0.9-6.1,2.6-7.8
				c1.7-1.7,4.1-2.5,7.4-2.5c1.4,0,2.7,0.1,3.7,0.2c1.6,0.2,3.1,1.6,3.1,3.7c0,2-1.7,3.8-3.7,3.8h-0.8c-2.1,0-3.3,1.1-3.3,3.5v1.3h4
				c2.1,0,3.8,1.6,3.8,3.7c0,2.1-1.7,3.7-3.8,3.7h-3.8v20.2c0,2.5-2,4.6-4.6,4.6c-2.5,0-4.6-2-4.6-4.6V605.6z"/>
			<path class="st1" d="M1646.8,614.1v-0.1c0-9.2,7.4-16.7,17.5-16.7c10,0,17.3,7.4,17.3,16.6v0.1c0,9.2-7.4,16.7-17.5,16.7
				C1654.2,630.7,1646.8,623.3,1646.8,614.1z M1672.6,614.1v-0.1c0-4.7-3.4-8.9-8.5-8.9c-5.2,0-8.3,4-8.3,8.8v0.1
				c0,4.7,3.4,8.9,8.5,8.9C1669.5,622.8,1672.6,618.8,1672.6,614.1z"/>
			<path class="st1" d="M1717.4,625.8c0,2.5-2,4.6-4.6,4.6c-2.5,0-4.6-2-4.6-4.6v-0.4c-2.1,2.7-4.8,5.2-9.4,5.2
				c-6.9,0-10.9-4.6-10.9-11.9V602c0-2.5,2-4.6,4.6-4.6c2.5,0,4.6,2,4.6,4.6v13.7c0,4.3,2,6.5,5.5,6.5c3.5,0,5.7-2.2,5.7-6.5V602
				c0-2.5,2-4.6,4.6-4.6c2.5,0,4.6,2,4.6,4.6V625.8z"/>
			<path class="st1" d="M1725.6,602c0-2.5,2-4.6,4.6-4.6c2.5,0,4.6,2,4.6,4.6v0.4c2.1-2.7,4.8-5.2,9.4-5.2c6.9,0,10.9,4.6,10.9,11.9
				v16.6c0,2.5-2,4.6-4.6,4.6c-2.5,0-4.6-2-4.6-4.6V612c0-4.3-2-6.5-5.5-6.5c-3.5,0-5.7,2.2-5.7,6.5v13.7c0,2.5-2,4.6-4.6,4.6
				c-2.5,0-4.6-2-4.6-4.6V602z"/>
			<path class="st1" d="M1795.3,625.8c0,2.5-2,4.6-4.6,4.6c-2.5,0-4.6-2-4.6-4.6v-0.4c-2.2,3-5.3,5.2-10,5.2
				c-7.5,0-14.6-5.9-14.6-16.6v-0.1c0-10.7,7-16.6,14.6-16.6c4.9,0,7.9,2.2,10,4.8v-11.6c0-2.5,2-4.6,4.6-4.6c2.5,0,4.6,2,4.6,4.6
				V625.8z M1770.6,613.8v0.1c0,5.3,3.6,8.9,7.9,8.9s7.8-3.5,7.8-8.9v-0.1c0-5.3-3.5-8.9-7.8-8.9S1770.6,608.4,1770.6,613.8z"/>
			<path class="st1" d="M1818.7,630.7c-9.7,0-16.8-6.8-16.8-16.6v-0.1c0-9.2,6.5-16.7,15.9-16.7c10.7,0,15.5,8.8,15.5,15.5
				c0,2.6-1.9,4.4-4.3,4.4H1811c0.9,4.1,3.8,6.3,7.9,6.3c2.5,0,4.6-0.8,6.5-2.2c0.7-0.5,1.3-0.7,2.2-0.7c2,0,3.5,1.6,3.5,3.6
				c0,1.2-0.5,2.1-1.2,2.7C1827.1,629.2,1823.4,630.7,1818.7,630.7z M1824.6,611.4c-0.5-4.1-2.9-6.8-6.8-6.8c-3.8,0-6.2,2.7-7,6.8
				H1824.6z"/>
			<path class="st1" d="M1840.3,602c0-2.5,2-4.6,4.6-4.6c2.5,0,4.6,2,4.6,4.6v1.4c1.3-3.1,3.5-6,6.2-6c2.8,0,4.4,1.9,4.4,4.4
				c0,2.4-1.6,3.8-3.4,4.3c-4.6,1.1-7.2,4.6-7.2,11.1v8.5c0,2.5-2,4.6-4.6,4.6c-2.5,0-4.6-2-4.6-4.6V602z"/>
			<path class="st0" d="M1911.4,629.2l-3.5-3.5c-3.4,2.9-7.5,4.9-12.5,4.9c-8,0-14.1-4.7-14.1-12.1v-0.1c0-5.3,2.9-9.1,8.2-11.5
				c-2.1-2.9-2.9-5.5-2.9-8.4v-0.1c0-5.8,4.6-11,12.7-11c7.1,0,11.8,4.7,11.8,10.6v0.1c0,5.6-3.6,8.9-8.8,11l5.5,5.5
				c1-1.4,1.9-2.9,2.8-4.6c0.4-0.8,1.6-2.1,3.4-2.1c2.1,0,3.8,1.7,3.8,3.8c0,0.7-0.2,1.3-0.5,1.9c-1.2,2.1-2.6,4.3-4,6.3l3.8,3.8
				c0.8,0.8,1.4,1.7,1.4,3c0,2.3-1.7,4-4,4C1913.2,630.6,1912.4,630.2,1911.4,629.2z M1902.6,620.5l-8-8.1c-2.8,1.5-4,3.5-4,5.6v0.1
				c0,2.9,2.5,4.9,5.9,4.9C1898.7,623,1900.7,622,1902.6,620.5z M1903,598.5v-0.1c0-2.4-1.6-3.9-4-3.9c-2.5,0-4.1,1.7-4.1,4.3v0.1
				c0,1.9,0.7,3.2,2.5,5.2C1901.1,602.7,1903,601.2,1903,598.5z"/>
			<path class="st1" d="M1941.6,614.1v-0.1c0-9.2,7-16.7,16.9-16.7c4.9,0,8.3,1.3,11,3.6c0.6,0.5,1.4,1.6,1.4,3.1
				c0,2.3-1.9,4.1-4.1,4.1c-1.2,0-2.1-0.5-2.6-0.9c-1.6-1.3-3.3-2-5.7-2c-4.6,0-7.8,4-7.8,8.8v0.1c0,4.9,3.2,8.9,8.2,8.9
				c2.4,0,4.3-0.8,6-2.2c0.5-0.4,1.4-0.8,2.5-0.8c2.2,0,3.8,1.7,3.8,3.9c0,1.2-0.5,2.2-1.3,2.9c-2.7,2.5-6.1,4.1-11.4,4.1
				C1948.7,630.7,1941.6,623.2,1941.6,614.1z"/>
			<path class="st1" d="M1991.7,630.7c-9.7,0-16.8-6.8-16.8-16.6v-0.1c0-9.2,6.5-16.7,15.9-16.7c10.7,0,15.5,8.8,15.5,15.5
				c0,2.6-1.9,4.4-4.3,4.4H1984c0.9,4.1,3.8,6.3,7.9,6.3c2.5,0,4.6-0.8,6.5-2.2c0.7-0.5,1.3-0.7,2.2-0.7c2,0,3.5,1.6,3.5,3.6
				c0,1.2-0.5,2.1-1.2,2.7C2000.1,629.2,1996.4,630.7,1991.7,630.7z M1997.6,611.4c-0.5-4.1-2.9-6.8-6.8-6.8c-3.8,0-6.2,2.7-7,6.8
				H1997.6z"/>
			<path class="st1" d="M2011.7,614.1v-0.1c0-9.2,7.4-16.7,17.5-16.7c10,0,17.3,7.4,17.3,16.6v0.1c0,9.2-7.4,16.7-17.5,16.7
				C2019.1,630.7,2011.7,623.3,2011.7,614.1z M2037.5,614.1v-0.1c0-4.7-3.4-8.9-8.5-8.9c-5.2,0-8.3,4-8.3,8.8v0.1
				c0,4.7,3.4,8.9,8.5,8.9C2034.4,622.8,2037.5,618.8,2037.5,614.1z"/>
		</g>
	</g>
	<g>
		<path class="st1" d="M1627.5,708.9c-1.4-0.9-2.4-2.3-2.4-4.2c0-2.7,2.2-4.7,4.9-4.7c1,0,1.9,0.3,2.7,0.8c2.4,1.4,4.5,2.1,7.4,2.1
			c5.7,0,8.8-4.3,9.4-10.6c-2.3,1.9-5.4,3.2-9.4,3.2c-10.1,0-16.6-5.6-16.6-15v-0.1c0-9.4,7.2-16.3,17.7-16.3c6.2,0,9.9,1.5,13.4,5
			c3.3,3.3,5.5,8.4,5.5,17.5v0.1c0,15.1-7.1,25.4-20.3,25.4C1634.6,712.2,1630.9,711,1627.5,708.9z M1649.7,680.1V680
			c0-4.1-3.1-7.1-8.2-7.1c-5,0-7.9,2.9-7.9,7v0.1c0,4.1,3.1,7,8.1,7C1646.8,687,1649.7,684.1,1649.7,680.1z"/>
		<path class="st1" d="M1672.8,707.2c-3.4-3.4-5.5-8.4-5.5-17.6v-0.1c0-14.4,6.5-25.4,20.4-25.4c4.7,0,8.4,1.1,11.2,2.8
			c1.6,0.9,2.7,2.3,2.7,4.4c0,2.7-2.2,4.7-4.9,4.7c-0.9,0-1.8-0.3-2.5-0.7c-2.1-1.2-4.1-1.9-6.8-1.9c-5.8,0-8.7,4.7-9.4,10.8
			c2.3-1.5,5.1-3,9.6-3c9.2,0,16.3,5.1,16.3,14.8v0.1c0,9.5-7.6,16.1-17.7,16.1C1680.2,712.2,1676.1,710.5,1672.8,707.2z
			 M1693.8,696.6v-0.1c0-3.9-3.1-6.8-8.1-6.8c-5.1,0-8,2.8-8,6.7v0.1c0,3.9,3.1,6.9,8.1,6.9C1690.9,703.4,1693.8,700.6,1693.8,696.6
			z"/>
		<path class="st1" d="M1716.8,707.2c-3.4-3.4-5.5-8.4-5.5-17.6v-0.1c0-14.4,6.5-25.4,20.4-25.4c4.7,0,8.4,1.1,11.2,2.8
			c1.6,0.9,2.7,2.3,2.7,4.4c0,2.7-2.2,4.7-4.9,4.7c-0.9,0-1.8-0.3-2.5-0.7c-2.1-1.2-4.1-1.9-6.8-1.9c-5.8,0-8.7,4.7-9.4,10.8
			c2.3-1.5,5.1-3,9.6-3c9.2,0,16.3,5.1,16.3,14.8v0.1c0,9.5-7.6,16.1-17.7,16.1C1724.2,712.2,1720.1,710.5,1716.8,707.2z
			 M1737.8,696.6v-0.1c0-3.9-3.1-6.8-8.1-6.8c-5.1,0-8,2.8-8,6.7v0.1c0,3.9,3.1,6.9,8.1,6.9C1734.9,703.4,1737.8,700.6,1737.8,696.6
			z"/>
		<path class="st1" d="M1778.1,701.4H1759c-2.7,0-5-2-5-4.7c0-2.1,0.9-3.8,2.4-5.6l20.2-23.5c1.9-2.3,3.4-3.5,6.4-3.5
			c2.7,0,4.9,2.1,4.9,4.9v24.1h2.5c2.3,0,4.2,1.9,4.2,4.2c0,2.3-1.9,4.1-4.2,4.1h-2.5v5.6c0,2.7-2.2,4.9-4.9,4.9s-4.9-2.1-4.9-4.9
			V701.4z M1778.1,693.1v-14.5l-12.4,14.5H1778.1z"/>
		<path class="st1" d="M1802.7,706.9c-0.9-0.8-1.7-2.2-1.7-3.7c0-2.7,2.3-4.9,4.9-4.9c1.5,0,2.5,0.6,3.3,1.3
			c2.7,2.3,5.4,3.5,9.1,3.5c3.9,0,6.6-2.2,6.6-5.6v-0.1c0-3.8-3.4-5.9-9.1-5.9h-1.6c-2.4,0-4.4-2-4.4-4.4c0-1.4,0.6-2.6,2.2-4.2
			l9-9.1h-14.3c-2.4,0-4.4-2-4.4-4.4c0-2.4,2-4.4,4.4-4.4h22.7c3,0,5.2,1.7,5.2,4.5c0,2.5-1.2,3.9-3.1,5.7l-9.1,8.7
			c6.3,1.1,12.5,4.4,12.5,13v0.1c0,8.8-6.4,15.2-16.7,15.2C1811.5,712.2,1806.5,710.2,1802.7,706.9z"/>
		<path class="st1" d="M1844,706.9c-0.9-0.8-1.7-2.2-1.7-3.7c0-2.7,2.3-4.9,4.9-4.9c1.5,0,2.5,0.6,3.3,1.3c2.7,2.3,5.4,3.5,9.1,3.5
			c3.9,0,6.6-2.2,6.6-5.6v-0.1c0-3.8-3.4-5.9-9.1-5.9h-1.6c-2.4,0-4.4-2-4.4-4.4c0-1.4,0.6-2.6,2.2-4.2l9-9.1H1848
			c-2.4,0-4.4-2-4.4-4.4c0-2.4,2-4.4,4.4-4.4h22.7c3,0,5.2,1.7,5.2,4.5c0,2.5-1.2,3.9-3.1,5.7l-9.1,8.7c6.3,1.1,12.5,4.4,12.5,13
			v0.1c0,8.8-6.4,15.2-16.7,15.2C1852.8,712.2,1847.8,710.2,1844,706.9z"/>
		<path class="st0" d="M1906.5,701.4h-19.1c-2.7,0-5-2-5-4.7c0-2.1,0.9-3.8,2.4-5.6l20.2-23.5c1.9-2.3,3.4-3.5,6.4-3.5
			c2.7,0,4.9,2.1,4.9,4.9v24.1h2.5c2.3,0,4.2,1.9,4.2,4.2c0,2.3-1.9,4.1-4.2,4.1h-2.5v5.6c0,2.7-2.2,4.9-4.9,4.9s-4.9-2.1-4.9-4.9
			V701.4z M1906.5,693.1v-14.5l-12.4,14.5H1906.5z"/>
		<path class="st0" d="M1931.3,701.4l13.2-10.8c5.8-4.7,8-7.3,8-11.2c0-3.9-2.6-6-6.2-6c-2.9,0-5,1.3-7.6,4.1
			c-0.7,0.7-1.9,1.5-3.5,1.5c-2.6,0-4.7-2.1-4.7-4.7c0-1.1,0.5-2.3,1.2-3.2c3.7-4.3,8.1-6.8,15.2-6.8c9.6,0,16,5.6,16,14.4v0.1
			c0,7.8-4,11.6-12.2,18l-7.6,5.8h16.2c2.5,0,4.5,2,4.5,4.5c0,2.5-2,4.4-4.5,4.4h-25.3c-3.2,0-5.5-1.8-5.5-4.9
			C1928.7,704.6,1929.6,702.8,1931.3,701.4z"/>
		<path class="st0" d="M1972.4,706.9c-0.9-0.8-1.7-2.2-1.7-3.7c0-2.7,2.3-4.9,4.9-4.9c1.5,0,2.5,0.6,3.3,1.3
			c2.7,2.3,5.4,3.5,9.1,3.5c3.9,0,6.6-2.2,6.6-5.6v-0.1c0-3.8-3.4-5.9-9.1-5.9h-1.6c-2.4,0-4.4-2-4.4-4.4c0-1.4,0.6-2.6,2.2-4.2
			l9-9.1h-14.3c-2.4,0-4.4-2-4.4-4.4c0-2.4,2-4.4,4.4-4.4h22.7c3,0,5.2,1.7,5.2,4.5c0,2.5-1.2,3.9-3.1,5.7l-9.1,8.7
			c6.3,1.1,12.5,4.4,12.5,13v0.1c0,8.8-6.4,15.2-16.7,15.2C1981.2,712.2,1976.2,710.2,1972.4,706.9z"/>
		<path class="st0" d="M2014,701.4l13.2-10.8c5.8-4.7,8-7.3,8-11.2c0-3.9-2.6-6-6.2-6c-2.9,0-5,1.3-7.6,4.1
			c-0.7,0.7-1.9,1.5-3.5,1.5c-2.6,0-4.7-2.1-4.7-4.7c0-1.1,0.5-2.3,1.2-3.2c3.7-4.3,8.1-6.8,15.2-6.8c9.6,0,16,5.6,16,14.4v0.1
			c0,7.8-4,11.6-12.2,18l-7.6,5.8h16.2c2.5,0,4.5,2,4.5,4.5c0,2.5-2,4.4-4.5,4.4h-25.3c-3.2,0-5.5-1.8-5.5-4.9
			C2011.3,704.6,2012.3,702.8,2014,701.4z"/>
	</g>
	<g>
		<path class="st0" d="M1535.5,654.3c0.8,0,1.7,0,2.5,0c0.1,0.1,0.3,0,0.5,0.1c0.1,0,0.2,0,0.3,0c0.1,0,0.2,0,0.3-0.1
			c0.1,0,0.2,0,0.3,0c1.1,0.2,2.3,0.1,3.4,0.3c5.4,1,10.4,3.2,14.8,6.5c4.8,3.7,8.5,8.4,10.8,14.1c1.4,3.4,2.3,6.8,2.4,10.5
			c0.1,3,0.1,6-0.5,9c-1.1,5.5-3.4,10.4-6.9,14.7c-3.5,4.3-7.8,7.6-12.9,9.8c-3.2,1.4-6.6,2.3-10,2.6c-7,0.6-13.8-0.6-20-4.1
			c-0.5-0.3-0.9-0.2-1.3,0.1c-2.7,1.9-5.7,3.1-9.1,3.5c-1.5,0.2-3.1,0.2-4.6-0.1c-0.7-0.1-1.1-0.5-1.2-1.1c-0.1-0.6,0.1-1.2,0.6-1.5
			c1-0.7,2.1-1.3,3-2.2c1.6-1.5,2.7-3.3,3.7-5.2c0.2-0.3,0-0.6-0.2-0.8c-1.4-1.6-2.7-3.4-3.8-5.3c-2.4-4.2-4-8.7-4.4-13.5
			c-0.5-5.7,0.1-11.3,2.4-16.6c1.6-3.8,3.8-7.2,6.7-10.3c3.4-3.5,7.3-6.2,11.8-8.1c2.6-1.1,5.4-1.9,8.3-2.2c0.7-0.1,1.4,0,2.2-0.2
			c0.2,0,0.4,0,0.5,0c0.1,0.1,0.2,0.1,0.3,0.1C1535.2,654.4,1535.4,654.4,1535.5,654.3z"/>
		<path class="st4" d="M1538.5,654.4c-0.2,0-0.4,0.1-0.5-0.1c0.2,0,0.4,0,0.5,0C1538.6,654.3,1538.6,654.4,1538.5,654.4
			C1538.5,654.4,1538.5,654.4,1538.5,654.4z"/>
		<path class="st5" d="M1535.5,654.3c-0.1,0.2-0.3,0.1-0.4,0.1c0,0,0-0.1,0-0.1c0,0,0,0,0,0C1535.2,654.3,1535.3,654.3,1535.5,654.3
			z"/>
		<path class="st6" d="M1535.1,654.3c0,0,0,0.1,0,0.1c-0.1,0-0.2,0-0.3-0.1C1534.9,654.3,1535,654.3,1535.1,654.3z"/>
		<path class="st7" d="M1538.5,654.4c0,0,0-0.1,0-0.1c0.1,0,0.2,0,0.3,0c0,0,0.1,0,0,0.1c0,0,0,0,0,0
			C1538.7,654.4,1538.6,654.4,1538.5,654.4z"/>
		<path class="st8" d="M1538.8,654.4c0,0,0-0.1,0-0.1c0.1,0,0.2,0,0.3,0C1539,654.5,1538.9,654.4,1538.8,654.4z"/>
		<path class="st1" d="M1542.2,706.2c-2.3,0-4.4-0.8-6.5-1.8c-6.6-3.3-11.5-8.2-14.9-14.7c-1.1-2.2-2-4.4-2-6.9
			c0-1.2,0.4-2.3,1.2-3.2c0.8-0.8,1.6-1.6,2.4-2.4c1.2-1.1,2.4-1.1,3.6,0c1.3,1.3,2.6,2.5,3.8,3.8c1.2,1.2,1.2,2.4,0,3.6
			c-0.7,0.7-1.4,1.4-2.2,2.1c-0.4,0.4-0.5,0.7-0.2,1.2c1.2,2.5,3.1,4.5,5.1,6.4c1.3,1.2,2.7,2.2,4.3,3c0.6,0.3,0.9,0.2,1.4-0.2
			c0.7-0.7,1.3-1.4,2-2.1c1.2-1.2,2.4-1.2,3.6,0c1.3,1.3,2.6,2.5,3.8,3.8c1.2,1.3,1.2,2.5,0,3.7c-0.7,0.7-1.5,1.5-2.2,2.2
			C1544.7,705.8,1543.5,706.3,1542.2,706.2z"/>
		<path class="st1" d="M1552.3,688.7c-0.3,0-0.2-0.3-0.3-0.5c-0.3-1.6-0.8-3.1-1.5-4.5c-2.9-5.8-7.6-9.4-14-10.6
			c-0.5-0.1-0.7-0.2-0.6-0.8c0.2-0.6,0.2-1.3,0.3-1.9c0-0.4,0.2-0.4,0.5-0.4c2.3,0.4,4.5,1.1,6.6,2.2c5.8,3.1,9.6,7.8,11.4,14.1
			c0.1,0.5,0.2,1.1,0.4,1.6c0,0.2,0.1,0.3-0.2,0.4C1554,688.4,1553.2,688.5,1552.3,688.7z"/>
		<path class="st1" d="M1544.4,689.2c-0.3,0.1-0.2-0.3-0.2-0.5c-0.6-2.5-1.9-4.5-3.9-6c-1.3-1-2.7-1.6-4.3-1.9
			c-0.4-0.1-0.5-0.2-0.4-0.6c0.1-0.7,0.3-1.3,0.3-2c0-0.6,0.3-0.4,0.6-0.4c3.2,0.6,5.8,2.2,7.9,4.6c1.4,1.7,2.3,3.6,2.8,5.8
			c0.1,0.4,0,0.5-0.3,0.6C1546.1,688.9,1545.3,689.1,1544.4,689.2z"/>
	</g>
	<g>
		<path class="st0" d="M1496,552.3c0.5-1.4,1.2-2.7,2.6-3.5c1.9-1,4.1-0.8,5.7,0.7c1.5,1.3,2,3.6,1.2,5.5c-0.2,0.5-0.1,0.7,0.2,1.1
			c1.3,1.3,2.6,2.6,3.9,3.9c0.9-2.1,1.3-4.2,1.6-6.3c0.2-1.5,0.3-3.1,0.5-4.7c0.1-0.4-0.1-0.7-0.4-1c-2.1-1.7-2.4-4.6-0.9-6.7
			c1.6-2.1,4.6-2.6,6.7-1.1c2.2,1.5,2.8,4.5,1.3,6.8c-0.2,0.3-0.4,0.4-0.1,0.8c2.6,4.3,5.8,8.3,9.2,12.1c0.8-1.5,1.3-3,1.8-4.4
			c1.7-5.1,3.1-10.4,4.3-15.6c0.1-0.4,0.1-0.8-0.3-1.1c-1.6-1.6-1.8-3.9-0.7-5.9c1.1-1.8,3.3-2.8,5.3-2.3c2.2,0.6,3.8,2.5,3.8,4.7
			c0,1.3-0.4,2.5-1.4,3.4c-0.3,0.3-0.4,0.5-0.3,1c1.4,6,2.9,11.9,5,17.7c0.3,0.8,0.7,1.6,1,2.5c0.6-0.7,1.2-1.4,1.8-2
			c2.7-3.1,5.2-6.4,7.3-9.9c0.2-0.4,0.3-0.6,0-1c-1.5-2.2-0.9-5.1,1.2-6.7c2.1-1.6,5.2-1.1,6.8,1.1c1.6,2.1,1.2,5-0.9,6.7
			c-0.2,0.2-0.5,0.3-0.5,0.7c0.3,3.8,0.7,7.6,2.1,11.3c1.5-1.5,2.9-2.9,4.3-4.2c0.3-0.3,0-0.5-0.1-0.8c-1.2-3,0.7-6.3,3.9-6.7
			c2.2-0.3,4.4,1,5.2,3.1c0.8,2.2,0.1,4.6-1.9,5.9c-0.5,0.3-0.7,0.7-0.8,1.2c-1,5.7-2.2,11.3-3.1,17c-0.2,1.3-0.4,2.6-0.6,3.9
			c-0.1,0.6-0.3,0.8-0.9,0.8c-19.5,0-39,0-58.6,0c-2.7,0-5.4,0-8,0c-0.5,0-0.6-0.1-0.7-0.6c-0.9-6.7-2.2-13.4-3.5-20.1
			c0-0.1,0-0.3-0.1-0.4c-0.1-0.9-0.3-1.7-1.3-2.2c-1.1-0.6-1.5-1.8-1.9-2.9C1496,553.4,1496,552.8,1496,552.3z"/>
		<path class="st0" d="M1536.9,583.9c11,0,21.9,0,32.9,0c0.7,0,0.9,0.1,0.9,0.9c0,3.3,0,6.7,0,10c0,2.3-1,3.3-3.2,3.3
			c-20.4,0-40.8,0-61.3,0c-2.2,0-3.2-1-3.2-3.2c0-3.4,0-6.7,0-10.1c0-0.7,0.2-0.8,0.9-0.8C1514.8,583.9,1525.8,583.9,1536.9,583.9z"
			/>
		<path class="st1" d="M1536.7,566c2.7,0,4.9,2.2,5,4.9c0,2.7-2.2,4.9-4.9,5c-2.7,0-4.9-2.2-5-4.9
			C1531.8,568.3,1534.1,566,1536.7,566z"/>
	</g>
	<g>
		<path class="st1" d="M1615.6,785.1L1615.6,785.1c0-5.5,4.1-8,10-8c2.5,0,4.3,0.4,6.1,1v-0.4c0-2.9-1.8-4.5-5.3-4.5
			c-1.9,0-3.5,0.3-4.9,0.7c-0.4,0.1-0.7,0.2-1,0.2c-1.6,0-2.9-1.2-2.9-2.9c0-1.2,0.8-2.3,1.9-2.7c2.2-0.8,4.6-1.3,7.9-1.3
			c3.8,0,6.6,1,8.4,2.8c1.9,1.8,2.7,4.6,2.7,7.9v11.3c0,1.9-1.5,3.4-3.4,3.4c-2,0-3.4-1.4-3.4-2.9v0c-1.7,1.9-4.1,3.1-7.5,3.1
			C1619.5,792.7,1615.6,790,1615.6,785.1z M1631.8,783.5v-1.2c-1.2-0.6-2.8-0.9-4.5-0.9c-3,0-4.9,1.2-4.9,3.4v0.1c0,1.9,1.6,3,3.8,3
			C1629.5,787.8,1631.8,786,1631.8,783.5z"/>
		<path class="st1" d="M1645.4,785.2v-11.7h-0.2c-1.7,0-3-1.3-3-3s1.3-3,3-3h0.2v-3.1c0-1.9,1.6-3.5,3.5-3.5s3.5,1.6,3.5,3.5v3.1
			h3.1c1.7,0,3,1.3,3,3s-1.3,3-3,3h-3.1V784c0,1.6,0.7,2.4,2.3,2.4c0.2,0,0.7,0,0.8,0c1.6,0,2.9,1.3,2.9,2.9c0,1.2-0.8,2.3-1.8,2.6
			c-1.3,0.5-2.5,0.7-4,0.7C1648.3,792.6,1645.4,790.9,1645.4,785.2z"/>
		<path class="st1" d="M1663.4,761.5c0-2,1.7-3.3,3.9-3.3c2.2,0,3.9,1.2,3.9,3.3v0.1c0,2-1.7,3.3-3.9,3.3
			C1665.1,764.9,1663.4,763.7,1663.4,761.5L1663.4,761.5z M1663.8,770.7c0-1.9,1.6-3.5,3.5-3.5s3.5,1.6,3.5,3.5V789
			c0,1.9-1.6,3.5-3.5,3.5s-3.5-1.6-3.5-3.5V770.7z"/>
		<path class="st1" d="M1678.6,773.5h-0.3c-1.6,0-2.9-1.2-2.9-2.9c0-1.6,1.3-2.9,2.9-2.9h0.3v-1.6c0-2.7,0.7-4.7,2-6
			s3.2-1.9,5.7-1.9c1.1,0,2.1,0,2.9,0.2c1.2,0.2,2.4,1.2,2.4,2.8c0,1.6-1.3,2.9-2.9,2.9h-0.6c-1.6,0-2.5,0.8-2.5,2.7v1h3.1
			c1.6,0,2.9,1.2,2.9,2.9c0,1.6-1.3,2.9-2.9,2.9h-3V789c0,1.9-1.6,3.5-3.5,3.5s-3.5-1.6-3.5-3.5V773.5z"/>
		<path class="st9" d="M1694.4,779.6c0-11.1,8.9-20.3,20.3-20.3s20.2,8.8,20.2,18.3c0,7.7-4.1,11.6-9.2,11.6c-3.7,0-5.9-1.4-7.1-2.8
			c-1.6,1.4-3.8,2.8-6.8,2.8c-4.7,0-8.5-3.4-8.5-8.9c0-6.5,4.9-11.6,10.4-11.6c3.2,0,5.1,1.4,6.4,3.1v0c0.3-1.8,1.3-2.8,2.9-2.8
			c1.6,0,3.1,1.3,2.7,3.4l-1.8,10.3c-0.1,0.5-0.1,1.1-0.1,1.4c0,1.7,1.2,2.9,3.4,2.9c3.3,0,5.9-3.3,5.9-9.4
			c0-8.6-7.8-16.5-18.2-16.5c-10.5,0-18.3,8.3-18.3,18.4c0,10.2,7.8,18.3,18.7,18.3c4.4,0,7.6-1,10.9-2.9c0.1-0.1,0.4-0.1,0.5-0.1
			c0.5,0,0.8,0.5,0.8,0.9c0,0.4-0.2,0.6-0.5,0.7c-3.4,2-7.2,3.2-11.8,3.2C1703.2,799.7,1694.4,790.6,1694.4,779.6z M1718.8,777.8
			c0-2.6-1.8-4.3-4.3-4.3c-3,0-5.5,2.8-5.5,6.5c0,2.9,1.8,4.5,4.3,4.5C1716.2,784.5,1718.8,781.6,1718.8,777.8z"/>
		<path class="st0" d="M1741.6,785.2v-11.7h-0.2c-1.7,0-3-1.3-3-3s1.3-3,3-3h0.2v-3.1c0-1.9,1.6-3.5,3.5-3.5s3.5,1.6,3.5,3.5v3.1
			h3.1c1.7,0,3,1.3,3,3s-1.3,3-3,3h-3.1V784c0,1.6,0.7,2.4,2.3,2.4c0.2,0,0.7,0,0.8,0c1.6,0,2.9,1.3,2.9,2.9c0,1.2-0.8,2.3-1.8,2.6
			c-1.3,0.5-2.5,0.7-4,0.7C1744.5,792.6,1741.6,790.9,1741.6,785.2z"/>
		<path class="st0" d="M1758.1,785.1L1758.1,785.1c0-5.5,4.1-8,10-8c2.5,0,4.3,0.4,6.1,1v-0.4c0-2.9-1.8-4.5-5.3-4.5
			c-1.9,0-3.5,0.3-4.9,0.7c-0.4,0.1-0.7,0.2-1,0.2c-1.6,0-2.9-1.2-2.9-2.9c0-1.2,0.8-2.3,1.9-2.7c2.2-0.8,4.6-1.3,7.9-1.3
			c3.8,0,6.6,1,8.4,2.8c1.9,1.8,2.7,4.6,2.7,7.9v11.3c0,1.9-1.5,3.4-3.4,3.4c-2,0-3.4-1.4-3.4-2.9v0c-1.7,1.9-4.1,3.1-7.5,3.1
			C1762,792.7,1758.1,790,1758.1,785.1z M1774.3,783.5v-1.2c-1.2-0.6-2.8-0.9-4.5-0.9c-3,0-4.9,1.2-4.9,3.4v0.1c0,1.9,1.6,3,3.8,3
			C1772.1,787.8,1774.3,786,1774.3,783.5z"/>
		<path class="st0" d="M1787.3,761.7c0-1.9,1.6-3.5,3.5-3.5s3.5,1.6,3.5,3.5V789c0,1.9-1.6,3.5-3.5,3.5s-3.5-1.6-3.5-3.5V761.7z"/>
		<path class="st0" d="M1812.7,792.8c-7.4,0-13-5.2-13-12.8v-0.1c0-7.1,5-12.9,12.3-12.9c8.3,0,11.9,6.8,11.9,11.9
			c0,2-1.4,3.4-3.3,3.4h-13.9c0.7,3.2,2.9,4.9,6.1,4.9c1.9,0,3.6-0.6,5-1.7c0.5-0.4,1-0.6,1.7-0.6c1.6,0,2.7,1.2,2.7,2.8
			c0,0.9-0.4,1.6-0.9,2.1C1819.1,791.6,1816.3,792.8,1812.7,792.8z M1817.2,777.9c-0.4-3.1-2.3-5.3-5.2-5.3c-2.9,0-4.8,2.1-5.4,5.3
			H1817.2z"/>
		<path class="st0" d="M1829.3,770.7c0-1.9,1.6-3.5,3.5-3.5s3.5,1.6,3.5,3.5v0.3c1.6-2.1,3.7-4,7.3-4c5.3,0,8.4,3.5,8.4,9.2V789
			c0,1.9-1.6,3.5-3.5,3.5c-1.9,0-3.5-1.6-3.5-3.5v-10.6c0-3.3-1.6-5-4.3-5s-4.4,1.7-4.4,5V789c0,1.9-1.6,3.5-3.5,3.5
			s-3.5-1.6-3.5-3.5V770.7z"/>
		<path class="st0" d="M1859.3,785.2v-11.7h-0.2c-1.7,0-3-1.3-3-3s1.3-3,3-3h0.2v-3.1c0-1.9,1.6-3.5,3.5-3.5s3.5,1.6,3.5,3.5v3.1
			h3.1c1.7,0,3,1.3,3,3s-1.3,3-3,3h-3.1V784c0,1.6,0.7,2.4,2.3,2.4c0.2,0,0.7,0,0.8,0c1.6,0,2.9,1.3,2.9,2.9c0,1.2-0.8,2.3-1.8,2.6
			c-1.3,0.5-2.5,0.7-4,0.7C1862.2,792.6,1859.3,790.9,1859.3,785.2z"/>
		<path class="st0" d="M1876.7,789.9c-0.7-0.5-1.3-1.3-1.3-2.4c0-1.6,1.2-2.8,2.8-2.8c0.5,0,1,0.1,1.4,0.4c2.4,1.5,4.7,2.2,6.7,2.2
			c2,0,3-0.7,3-1.9v-0.1c0-1.5-2.4-2-5.1-2.9c-3.5-1-7.4-2.6-7.4-7.4v-0.1c0-5,4.1-7.9,9.1-7.9c2.6,0,5.3,0.7,7.7,1.9
			c1,0.5,1.7,1.4,1.7,2.6c0,1.6-1.2,2.8-2.8,2.8c-0.5,0-0.8-0.1-1.3-0.3c-2-1-3.9-1.6-5.4-1.6c-1.7,0-2.6,0.7-2.6,1.7v0.1
			c0,1.4,2.4,2,5,3c3.5,1.2,7.5,2.8,7.5,7.4v0.1c0,5.5-4.1,8-9.5,8C1883,792.7,1879.7,791.8,1876.7,789.9z"/>
		<path class="st0" d="M1901.2,785.2v-11.7h-0.2c-1.7,0-3-1.3-3-3s1.3-3,3-3h0.2v-3.1c0-1.9,1.6-3.5,3.5-3.5s3.5,1.6,3.5,3.5v3.1
			h3.1c1.7,0,3,1.3,3,3s-1.3,3-3,3h-3.1V784c0,1.6,0.7,2.4,2.3,2.4c0.2,0,0.7,0,0.8,0c1.6,0,2.9,1.3,2.9,2.9c0,1.2-0.8,2.3-1.8,2.6
			c-1.3,0.5-2.5,0.7-4,0.7C1904.2,792.6,1901.2,790.9,1901.2,785.2z"/>
		<path class="st0" d="M1917.8,785.1L1917.8,785.1c0-5.5,4.1-8,10-8c2.5,0,4.3,0.4,6.1,1v-0.4c0-2.9-1.8-4.5-5.3-4.5
			c-1.9,0-3.5,0.3-4.9,0.7c-0.4,0.1-0.7,0.2-1,0.2c-1.6,0-2.9-1.2-2.9-2.9c0-1.2,0.8-2.3,1.9-2.7c2.2-0.8,4.6-1.3,7.9-1.3
			c3.8,0,6.6,1,8.4,2.8c1.9,1.8,2.7,4.6,2.7,7.9v11.3c0,1.9-1.5,3.4-3.4,3.4c-2,0-3.4-1.4-3.4-2.9v0c-1.7,1.9-4.1,3.1-7.5,3.1
			C1921.6,792.7,1917.8,790,1917.8,785.1z M1933.9,783.5v-1.2c-1.2-0.6-2.8-0.9-4.5-0.9c-3,0-4.9,1.2-4.9,3.4v0.1c0,1.9,1.6,3,3.8,3
			C1931.7,787.8,1933.9,786,1933.9,783.5z"/>
		<path class="st0" d="M1945.5,780L1945.5,780c0-7.2,5.4-13,13-13c3.7,0,6.4,1,8.5,2.8c0.5,0.4,1.1,1.2,1.1,2.4
			c0,1.8-1.4,3.1-3.2,3.1c-0.9,0-1.6-0.4-2-0.7c-1.2-1-2.5-1.6-4.4-1.6c-3.5,0-6,3.1-6,6.8v0.1c0,3.8,2.5,6.8,6.3,6.8
			c1.8,0,3.3-0.6,4.6-1.7c0.4-0.3,1.1-0.6,1.9-0.6c1.7,0,3,1.3,3,3c0,0.9-0.4,1.7-1,2.2c-2.1,1.9-4.7,3.2-8.8,3.2
			C1950.9,792.8,1945.5,787.1,1945.5,780z"/>
		<path class="st0" d="M1973.1,761.7c0-1.9,1.6-3.5,3.5-3.5s3.5,1.6,3.5,3.5v15.4l8.8-8.3c1-1,1.9-1.6,3.1-1.6
			c1.9,0,3.1,1.5,3.1,3.1c0,1.2-0.6,2.1-1.6,3.1l-5.5,4.8l6.6,8.9c0.6,0.8,0.9,1.5,0.9,2.3c0,1.9-1.5,3.2-3.3,3.2
			c-1.4,0-2.2-0.5-3.1-1.6l-6.2-8.5l-2.8,2.5v4c0,1.9-1.6,3.5-3.5,3.5s-3.5-1.6-3.5-3.5V761.7z"/>
		<path class="st0" d="M2003.7,784.6c2.3,0,4,1.7,4,3.9v0.1c0,2.2-1.7,3.9-4,3.9s-4-1.7-4-3.9v-0.1
			C1999.7,786.3,2001.4,784.6,2003.7,784.6z"/>
		<path class="st0" d="M2013.4,761.5c0-2,1.7-3.3,3.9-3.3c2.2,0,3.9,1.2,3.9,3.3v0.1c0,2-1.7,3.3-3.9,3.3
			C2015.1,764.9,2013.4,763.7,2013.4,761.5L2013.4,761.5z M2013.8,770.7c0-1.9,1.6-3.5,3.5-3.5s3.5,1.6,3.5,3.5V789
			c0,1.9-1.6,3.5-3.5,3.5s-3.5-1.6-3.5-3.5V770.7z"/>
		<path class="st0" d="M2027.5,770.7c0-1.9,1.6-3.5,3.5-3.5s3.5,1.6,3.5,3.5v0.3c1.6-2.1,3.7-4,7.3-4c5.3,0,8.4,3.5,8.4,9.2V789
			c0,1.9-1.6,3.5-3.5,3.5c-1.9,0-3.5-1.6-3.5-3.5v-10.6c0-3.3-1.6-5-4.3-5s-4.4,1.7-4.4,5V789c0,1.9-1.6,3.5-3.5,3.5
			s-3.5-1.6-3.5-3.5V770.7z"/>
	</g>
	<g>
		<polygon class="st0" points="1536.8,769.3 1505,750.1 1568.6,750.1 		"/>
		<path class="st1" d="M1536.8,774.5l-31.8-19.3v32.3c0,6.5,5.2,11.7,11.7,11.7h40.3c6.5,0,11.7-5.2,11.7-11.7v-32.3L1536.8,774.5z"
			/>
	</g>
	<g>
		<path class="st1" d="M1570.9,849.2c-0.4-3.3-1.3-6.4-2.7-9.4c-1.6-3.5-3.6-6.6-6.2-9.4c-2.1-2.2-4.4-4.2-7-5.8
			c-3.2-2-6.6-3.4-10.3-4.3c-3.4-0.8-6.9-0.9-10.4-0.8c-4.1,0.1-8,1.2-11.8,2.9c-5.7,2.6-10.4,6.5-14.1,11.6
			c-2.6,3.7-4.4,7.8-5.5,12.2c-0.4,1.6-0.5,3.2-0.7,4.8c0,0.2,0,0.4,0,0.5c0,0.1,0,0.2,0,0.3s0,0.2,0,0.3s0,0.2,0,0.3s0,0.2,0,0.3
			s0,0.2,0,0.3s0,0.2,0,0.3c0,0.7,0,1.3,0,2c0,0.1,0,0.3,0,0.4c0,0.1,0,0.2,0,0.3s0,0.2,0,0.3c0,0.2,0,0.4,0,0.7
			c0,0.1,0.1,0.1,0.1,0.2c0.1,3.9,1.2,7.6,2.8,11.2c2.1,4.7,5.1,8.7,9,12c3.3,2.9,7,5,11.2,6.4c2.9,1,6,1.7,9.1,1.8
			c3.2,0.1,6.3,0.1,9.4-0.6c8-1.8,14.5-5.8,19.7-12.2c2.9-3.6,5-7.6,6.3-12c0.7-2.4,1.1-4.8,1.2-7.3
			C1571.2,853.9,1571.2,851.5,1570.9,849.2z"/>
		<path class="st0" d="M1507.7,841.8c0,0.2,0,0.4,0,0.5c-0.1,0.8,0.1,1.3,0.9,1.5c0.4,0.1,0.4,0.3,0.4,0.7c0,0.2,0,0.3,0,0.5
			c-0.3,1.4,0.4,2.4,1.1,3.5c0.3,0.4,0.8,0.4,1.1,0.3c0.2-0.1,0.2-0.6,0-1c-0.6-0.9-1.2-1.7-1.2-2.8c0-0.2-0.2-0.5,0.2-0.5
			c0.3,0,0.5,0,0.5,0.3c0,1.5,0.9,2.5,1.7,3.6c0.2,0.3,0.4,0.5,0.1,0.8c-0.3,0.3-0.1,0.6,0,0.9c0.6,1.5,2,1.5,3.3,1.8
			c0.3,0.1,0.5-0.5,0.9-0.3c0.2,0.1,0.6,0,0.4,0.5c-0.1,0.4,0.1,0.5,0.4,0.5c1.2,0.1,2.1,0.6,2.8,1.6c0.5,0.9,1.3,1.1,2.3,1.1
			c0.3,0,0.9-0.2,1,0.3c0.4,1,0.2,1.8-0.4,2.1c-0.8,0.4-1.3,1-1.1,2c0,0.1,0,0.2,0,0.3c-0.4,1.1,0.1,1.8,0.7,2.5
			c0.4,0.4,0.8,0.9,1.1,1.4c0.1,0.1,0.2,0.2,0.2,0.3c0,0.8,0.5,1.1,1.2,1.3c0.6,0.2,1.1,0.8,1.7,1.2c0.2,0.2,0.2,0.4,0.2,0.6
			c0,1.5,0,3,0,4.4c0,0.2-0.1,0.5,0.2,0.5c0.6,0.1,0.4,0.5,0.4,0.9c0,0.1,0,0.3-0.1,0.4c-0.4,1-0.2,1.8,0.6,2.5
			c0.4,0.4,0.3,0.8,0.2,1.2c-0.4,2,0.7,3.4,1.9,4.7c0.1,0.2,0.4,0.3,0.5,0.4c0.6,0.9,1.5,0.7,2.4,0.7c0.2,0,0.3-0.1,0.4-0.3
			c0-0.2,0.1-0.3-0.1-0.5c-0.2-0.2-0.5-0.4-0.7-0.6c-0.5-0.3-0.5-0.7-0.3-1.1c0.1-0.2,0.1-0.3,0.2-0.5c0.1-0.4,0.1-0.9-0.5-0.8
			c-0.4,0.1-0.5-0.2-0.7-0.5c-0.2-0.3,0.2-0.4,0.3-0.5c0.6-0.6,0.6-0.8-0.2-1.1c-0.2-0.1-0.2-0.1-0.2-0.3c0-0.2,0.2-0.3,0.3-0.3
			c0.9,0,1.7-0.5,2.4-0.9c0.2-0.1,0.4-0.2,0.5-0.4c0.5-1.1,1.3-1.9,2-2.8c0.4-0.5,0.5-0.9,0.3-1.4c-0.2-0.6-0.4-1.2,0.1-1.8
			c0.2-0.3,0.4-0.3,0.7-0.4c0.6,0,1.1,0.2,1.7-0.2c0.6-0.4,1-0.9,1-1.7c0-0.5,0.2-1.1,0.2-1.6c0-0.9,0.4-1.6,1-2.3
			c0.2-0.2,0.3-0.4,0.4-0.6c0.4-0.8,0.3-1.1-0.5-1.4c-0.3-0.1-0.6-0.3-0.7-0.6c-0.3-0.7-0.8-1-1.6-0.9c-1.3,0.2-2.4-0.2-3.6-0.7
			c-0.3-0.1-0.4-0.3-0.4-0.6c0-0.4,0-0.9-0.2-1.3c-0.4-1.1-0.6-1.2-1.7-1.2c-0.7,0-1.1-0.2-1.4-0.8c-0.3-0.6-0.6-1.2-1.4-1.4
			c-0.1,0-0.2-0.2-0.3,0c-0.5,0.6-1.8,0.6-2.3,0c-0.3-0.4-1.8-1-2.2-0.8c-0.3,0.1-0.5,0.4-0.7,0.7c-0.6,1-1.3,1.2-2.4,0.9
			c-1-0.3-1-0.2-1.1-1.3c0-0.6,0.1-1.3-0.2-1.7c-0.3-0.3-1.1-0.3-1.7-0.4c0.2-0.4,0.3-0.7,0.5-1c0.1-0.2,0.2-0.4,0.1-0.6
			c-0.1-0.5-0.2-0.5-0.6-0.2c-0.5,0.4-1,0.6-1.4,1c-0.3,0.3-0.7,0.3-1.1,0.3c-1.1-0.1-1.6-0.8-1.3-1.9c0.4-1.6,1.3-2.6,2.8-3.1
			c0.2-0.1,0.4-0.1,0.6-0.1c0.8,0,1.6,0,2.3,0c0.6,0,1.1,0,0.9,0.8c-0.1,0.2,0.1,0.4,0.3,0.5c0.3,0.1,0.6,0.3,1,0.4
			c0-0.3,0-0.6,0-0.8c-0.2-1.1,0.3-1.7,1.1-2.2c0.4-0.3,0.7-0.5,1.1-0.7c0.4-0.2,0.8-0.5,0.7-1.1c0-0.2,0.1-0.3,0.2-0.4
			c0.9-1,1.8-2,3.1-2.6c0.8-0.3,1-1.2,1.7-1.6c0.2-0.2,0.4-0.4,0.7-0.2c0.5,0.4,0.6,0,0.9-0.3c-0.2-0.1-0.4-0.1-0.6-0.2
			c-0.2-0.1-0.4-0.1-0.4-0.4c0-0.3,0.2-0.5,0.4-0.5c0.3,0,0.7-0.1,1,0.3c0.3,0.4,1.3,0.5,1.6,0c0.2-0.3,0.4-0.3,0.5-0.2
			c0.2,0.2,0.2,0.4,0,0.6c-0.5,0.6-0.5,0.7,0.3,1c0.3,0.1,0.6,0.2,0.9,0.3c0.2,0.1,0.5,0.3,0.7-0.1c0.1-0.3,0.1-0.7-0.4-0.8
			c-0.2-0.1-0.4-0.2-0.6-0.3c-0.2-0.1-0.4-0.1-0.4-0.4c0-0.2,0.2-0.2,0.4-0.3c0.7-0.1,0.8-0.5,0.7-1.1c0-0.2-0.1-0.4-0.3-0.4
			c-1-0.3-1.1-1.1-1-1.9c0-0.1,0-0.3,0-0.4c-0.5,0.1-0.9,0.4-1.4,0.6c-0.3,0.1-0.5,0.2-0.8,0.1c-0.2-0.1,0-0.4,0-0.6
			c0.1-0.5,0-0.9-0.6-0.9c-0.3,0-0.6-0.2-1-0.2c-0.9-0.2-1.5,0.3-1.5,1.2c0,0.1,0,0.1,0,0.2c0,1.3,0,1.3-1.2,1.6
			c-0.4,0.1-0.6,0.3-0.7,0.6c-0.1,0.3-0.2,0.5-0.4,0.8c-0.1,0.2-0.4,0.2-0.6,0.2c-0.3,0-0.2-0.3-0.2-0.4c-0.1-1.3-0.1-1.3-1.3-1.5
			c-0.7-0.1-1.3-0.8-1.4-1.5c0-0.2,0-0.3,0.2-0.3c1.1-0.6,2.1-1.4,3.4-1.8c0.4-0.1,0.7-0.2,0.7,0.4c0,0.1,0,0.4,0.2,0.3
			c0.2,0,0.5,0.1,0.6-0.1c0.1-0.6,0.6-0.4,0.9-0.5c0-0.2-0.2-0.2-0.3-0.4c-0.1-0.2-0.2-0.5,0.2-0.4c0.5,0,0.9-0.2,1.2-0.6
			c0.4-0.5,1-0.3,1.5-0.5c0.7-0.2,1.3,0.1,1.8,0.7c-0.7,0.4-1.4,0.8-2.3,1.3c1,0.2,1.9,0.4,2.8,0.7c0.4,0.1,0.4-0.2,0.4-0.4
			c0.1-0.5,0.4-0.6,0.9-0.6c0.2,0,0.6,0.1,0.8-0.1c0.2-0.2,0.3-0.4,0.3-0.7c0-0.3-0.3-0.2-0.5-0.3c-0.4-0.1-0.3-0.4-0.3-0.6
			c0.1-0.5-0.1-0.7-0.6-0.9c-0.5-0.2-1.1-0.4-1.6-0.7c-1.1-0.6-2.2-0.3-3.3,0.1c-0.6,0.2-0.8,0.6-0.7,1.2c0,0.2,0.2,0.6-0.1,0.6
			c-0.4,0-0.9,0.1-1.1-0.3c-0.1-0.2-0.3-0.6,0-0.8c0.3-0.2,0.5-0.5,0.9-0.8c-0.9-0.1-1.6-0.2-2.3-0.1c-0.4,0.1-0.5,0.3-0.5,0.6
			c-0.1,0.4,0.3,0.2,0.5,0.3c0.2,0.1,0.2,0.2,0.2,0.3c-0.1,0.2,0,0.5-0.3,0.5c-0.2,0-0.5,0-0.7,0.1c-0.1,0-0.3,0-0.4,0.1
			c-0.5,0.9-1.3,0.4-1.9,0.5c-0.5,0.1-0.2-0.5-0.3-0.8c-0.1-0.3,0.2-0.3,0.4-0.3c1,0.2,1.6-0.4,2.2-1.1c-0.3-0.4-0.6-0.3-1,0
			c-0.7,0.7-1.7,0.6-2.2-0.2c-0.5-0.7-1.8-0.9-2.5-0.4c-0.5,0.3-0.9,0.7-1.6,1.2c0.5,0,0.9,0,1.3,0c0.2,0,0.4-0.1,0.5,0.2
			c0.1,0.3,0,0.5-0.3,0.6c-0.1,0.2-0.3,0.2-0.5,0.1c-0.5,0-1-0.1-1.4-0.4c-0.5-0.3-1.1-0.1-1.8-0.2c1.3-1,2.7-1.8,4.1-2.5
			c4.8-2.5,10-3.6,15.4-3.4c7.4,0.3,13.8,2.9,19.5,7.6c0.3,0.3,0.2,0.7-0.3,1c-0.5,0.3-1.1,0.3-1.5,0.8c-0.4,0.5-0.3,1,0.3,1.2
			c0.3,0.1,0.4,0.4,0.5,0.6c0.1,0.5,0.4,0.6,0.8,0.4c0.2-0.1,0.5-0.2,0.7-0.3c0,0.2,0.1,0.4,0.1,0.6c0.1,0.9,0.1,0.9-0.8,0.8
			c-1-0.2-1.8,0-2.2,0.9c-0.3,0.7-1,0.9-1.7,1c-0.5,0-0.6,0.3-0.6,0.7c0,0.3-0.4,0.8,0.3,0.9c0.4,0.1,0.1,0.4,0.1,0.6
			c0,0.3-0.1,0.4-0.4,0.3c-0.7-0.2-1.4-0.2-2.2-0.1c-0.7,0.2-0.8,0.6-0.8,1.1c0,0.3,0.1,0.6,0.1,0.9c0.1,0.7,0.5,1,1.2,1.1
			c0.1,0,0.1,0,0.2,0c1.1,0,2.2,0.2,2.6-1.2c0.1-0.4,0.5-0.6,0.7-1c0.3-0.5,0.7-0.8,1.3-0.5c0.2,0.1,0.3,0,0.5-0.2
			c0.2-0.2,0.5-0.4,0.8-0.7c0.2,1.1,1.2,1.2,1.8,1.8c0.2,0.1,0.4,0.2,0.6,0.4c0.1,0.1,0.3,0.1,0.2,0.3c-0.1,0.1-0.2,0.3-0.4,0.3
			c-0.3,0-0.5,0-0.8,0c0.1,0.6,0.6,0.7,1,0.7c0.5-0.1,0.6-0.3,0.8-0.9c0.3-0.9-0.3-1.1-0.8-1.3c-0.7-0.3-1.1-0.9-1.2-1.7
			c0.4,0,1-0.2,1.3,0c0.6,0.3,1.1,0.9,1.6,1.4c0.1,0,0.1,0.2,0.1,0.3c-0.2,1.1,0.6,1.6,1.2,2.2c0.4-0.7,0.1-1.9,1.3-2.1
			c0.2,0.2,0.1,0.5,0.1,0.8c0.1,0.9,0.7,1.5,1.6,1.4c0.8-0.1,1.2,0.1,1.3,0.9c0.1,0.4,0.3,0.9,0.4,1.3c0.1,0.3,0.1,0.5-0.3,0.5
			c-0.7,0-1.3,0-2,0c-0.6,0-0.9-0.5-1.3-0.8c-0.6-0.5-1.3-0.2-1.9-0.2c-0.3,0-0.2,0.4-0.2,0.6c0,0.5-0.3,0.6-0.6,0.4
			c-0.8-0.6-1.8-0.6-2.7-0.9c-0.5-0.1-0.6-0.3-0.6-0.8c0-1.1,0-1.2-1.1-1.1c-1.2,0.1-2.4,0-3.4,0.7c-0.5,0.3-1.1,0.1-1.6,0.1
			c-0.9-0.1-1.5,0.5-2.1,0.9c-0.3,0.2-0.1,0.7-0.1,1.1c0,0.5-0.1,0.8-0.6,1.1c-0.9,0.6-1.7,1.2-2.5,1.8c-0.2,0.2-0.5,0.3-0.3,0.7
			c0.1,0.3,0,0.8,0.6,0.7c0.1,0,0.3,0,0.2,0.1c-0.1,0.3,0.1,0.8-0.3,0.9c-0.4,0.2-0.3,0.4-0.4,0.7c-0.3,1.5,0.2,2.7,1.4,3.7
			c0.4,0.3,0.7,0.8,1.1,1.2c0.7,0.8,1,0.8,2,0.5c0.6-0.2,1.2,0,1.8-0.1c0.2,0,0.5,0,0.7-0.2c0.9-0.7,1.5-0.7,2.4,0.1
			c0.4,0.4,1,0.3,1.5,0.3c0.6,0,0.7,0.2,0.6,0.7c-0.4,1.4-0.1,2.7,0.8,3.8c0,0,0,0.1,0.1,0.1c0.4,0.6,0.9,1.3,1,1.9
			c0.1,0.7-0.6,1.3-0.9,2c-0.3,0.6-0.2,1.3,0.3,1.7c0.4,0.4,0.6,0.8,0.6,1.3c-0.2,1.2,0.1,2.2,1,3.1c0.4,0.4,0.2,1,0.2,1.5
			c0,0.9,0,0.9,1,1c-0.6,0.9-1.4,1.7-2.2,2.4c-6.6,6.4-14.5,9.5-23.7,9.2c-13-0.6-24.3-9.1-28.5-21.5c-2.5-7.4-2.2-14.8,0.8-22
			C1507.6,841.9,1507.6,841.8,1507.7,841.8c-0.1,0-0.1-0.1,0-0.1C1507.7,841.7,1507.7,841.7,1507.7,841.8z"/>
		<path class="st1" d="M1534.5,838.2c0.1,0.1,0.3,0,0.3,0.2c0,0.1-0.1,0.3-0.2,0.3c-0.3,0-0.3,0.2-0.4,0.4c-0.2,0.3-0.5,0.4-0.8,0.3
			c-0.2,0-0.3-0.2-0.3-0.4c0-0.3,0.3-0.2,0.4-0.2c0.3,0,0.5,0.1,0.6-0.3C1534.1,838.1,1534.3,838.2,1534.5,838.2z"/>
		<path class="st1" d="M1532.4,839.2c0,0.3-0.2,0.3-0.4,0.3c-0.2,0-0.3,0-0.3-0.3c0-0.2,0.1-0.5,0.4-0.5
			C1532.3,838.7,1532.5,838.9,1532.4,839.2z"/>
	</g>
	<g>
		<path class="st1" d="M1621.8,865.1l-6.1-17.5c-0.1-0.4-0.3-1.1-0.3-1.7c0-1.6,1.3-3.2,3.4-3.2c1.8,0,2.9,1.1,3.4,2.7l3.8,12.6
			l3.9-12.5c0.5-1.7,1.8-2.8,3.6-2.8h0.4c1.8,0,3.1,1.2,3.6,2.8l3.9,12.6l3.9-12.7c0.5-1.5,1.5-2.7,3.4-2.7c1.9,0,3.3,1.5,3.3,3.2
			c0,0.5-0.1,1.1-0.2,1.4l-6.2,17.7c-0.7,2.2-2.2,3.1-3.9,3.1h-0.2c-1.7,0-3.1-1-3.8-3l-3.9-12.5l-4,12.5c-0.6,2-2.1,3-3.8,3h-0.2
			C1624,868.2,1622.6,867.3,1621.8,865.1z"/>
		<path class="st1" d="M1660.6,865.1l-6.1-17.5c-0.1-0.4-0.3-1.1-0.3-1.7c0-1.6,1.3-3.2,3.4-3.2c1.8,0,2.9,1.1,3.4,2.7l3.8,12.6
			l3.9-12.5c0.5-1.7,1.8-2.8,3.6-2.8h0.4c1.8,0,3.1,1.2,3.6,2.8l3.9,12.6l3.9-12.7c0.5-1.5,1.5-2.7,3.4-2.7c1.9,0,3.3,1.5,3.3,3.2
			c0,0.5-0.1,1.1-0.2,1.4l-6.2,17.7c-0.7,2.2-2.2,3.1-3.9,3.1h-0.2c-1.7,0-3.1-1-3.8-3l-3.9-12.5l-4,12.5c-0.6,2-2.1,3-3.8,3h-0.2
			C1662.8,868.2,1661.4,867.3,1660.6,865.1z"/>
		<path class="st1" d="M1699.4,865.1l-6.1-17.5c-0.1-0.4-0.3-1.1-0.3-1.7c0-1.6,1.3-3.2,3.4-3.2c1.8,0,2.9,1.1,3.4,2.7l3.8,12.6
			l3.9-12.5c0.5-1.7,1.8-2.8,3.6-2.8h0.4c1.8,0,3.1,1.2,3.6,2.8l3.9,12.6l3.9-12.7c0.5-1.5,1.5-2.7,3.4-2.7c1.9,0,3.3,1.5,3.3,3.2
			c0,0.5-0.1,1.1-0.2,1.4l-6.2,17.7c-0.7,2.2-2.2,3.1-3.9,3.1h-0.2c-1.7,0-3.1-1-3.8-3l-3.9-12.5l-4,12.5c-0.6,2-2.1,3-3.8,3h-0.2
			C1701.6,868.2,1700.2,867.3,1699.4,865.1z"/>
		<path class="st1" d="M1734.4,860.1c2.3,0,4,1.7,4,3.9v0.1c0,2.2-1.7,3.9-4,3.9s-4-1.7-4-3.9V864
			C1730.3,861.8,1732,860.1,1734.4,860.1z"/>
		<path class="st1" d="M1744.1,860.7V849h-0.2c-1.7,0-3-1.3-3-3s1.3-3,3-3h0.2v-3.1c0-1.9,1.6-3.5,3.5-3.5s3.5,1.6,3.5,3.5v3.1h3.1
			c1.7,0,3,1.3,3,3s-1.3,3-3,3h-3.1v10.6c0,1.6,0.7,2.4,2.3,2.4c0.2,0,0.7,0,0.8,0c1.6,0,2.9,1.3,2.9,2.9c0,1.2-0.8,2.3-1.8,2.6
			c-1.3,0.5-2.5,0.7-4,0.7C1747,868.2,1744.1,866.5,1744.1,860.7z"/>
		<path class="st1" d="M1760.7,860.6L1760.7,860.6c0-5.5,4.1-8,10-8c2.5,0,4.3,0.4,6.1,1v-0.4c0-2.9-1.8-4.5-5.3-4.5
			c-1.9,0-3.5,0.3-4.9,0.7c-0.4,0.1-0.7,0.2-1,0.2c-1.6,0-2.9-1.2-2.9-2.9c0-1.2,0.8-2.3,1.9-2.7c2.2-0.8,4.6-1.3,7.9-1.3
			c3.8,0,6.6,1,8.4,2.8c1.9,1.8,2.7,4.6,2.7,7.9v11.3c0,1.9-1.5,3.4-3.4,3.4c-2,0-3.4-1.4-3.4-2.9v0c-1.7,1.9-4.1,3.1-7.5,3.1
			C1764.5,868.2,1760.7,865.5,1760.7,860.6z M1776.8,859v-1.2c-1.2-0.6-2.8-0.9-4.5-0.9c-3,0-4.9,1.2-4.9,3.4v0.1c0,1.9,1.6,3,3.8,3
			C1774.6,863.4,1776.8,861.6,1776.8,859z"/>
		<path class="st1" d="M1789.9,837.2c0-1.9,1.6-3.5,3.5-3.5s3.5,1.6,3.5,3.5v27.3c0,1.9-1.6,3.5-3.5,3.5s-3.5-1.6-3.5-3.5V837.2z"/>
		<path class="st1" d="M1815.3,868.3c-7.4,0-13-5.2-13-12.8v-0.1c0-7.1,5-12.9,12.3-12.9c8.3,0,11.9,6.8,11.9,11.9
			c0,2-1.4,3.4-3.3,3.4h-13.9c0.7,3.2,2.9,4.9,6.1,4.9c1.9,0,3.6-0.6,5-1.7c0.5-0.4,1-0.6,1.7-0.6c1.6,0,2.7,1.2,2.7,2.8
			c0,0.9-0.4,1.6-0.9,2.1C1821.7,867.2,1818.9,868.3,1815.3,868.3z M1819.8,853.4c-0.4-3.1-2.3-5.3-5.2-5.3c-2.9,0-4.8,2.1-5.4,5.3
			H1819.8z"/>
		<path class="st1" d="M1831.9,846.2c0-1.9,1.6-3.5,3.5-3.5s3.5,1.6,3.5,3.5v0.3c1.6-2.1,3.7-4,7.3-4c5.3,0,8.4,3.5,8.4,9.2v12.8
			c0,1.9-1.6,3.5-3.5,3.5c-1.9,0-3.5-1.6-3.5-3.5v-10.6c0-3.3-1.6-5-4.3-5s-4.4,1.7-4.4,5v10.6c0,1.9-1.6,3.5-3.5,3.5
			s-3.5-1.6-3.5-3.5V846.2z"/>
		<path class="st1" d="M1861.8,860.7V849h-0.2c-1.7,0-3-1.3-3-3s1.3-3,3-3h0.2v-3.1c0-1.9,1.6-3.5,3.5-3.5s3.5,1.6,3.5,3.5v3.1h3.1
			c1.7,0,3,1.3,3,3s-1.3,3-3,3h-3.1v10.6c0,1.6,0.7,2.4,2.3,2.4c0.2,0,0.7,0,0.8,0c1.6,0,2.9,1.3,2.9,2.9c0,1.2-0.8,2.3-1.8,2.6
			c-1.3,0.5-2.5,0.7-4,0.7C1864.7,868.2,1861.8,866.5,1861.8,860.7z"/>
		<path class="st0" d="M1879.2,865.4c-0.7-0.5-1.3-1.3-1.3-2.4c0-1.6,1.2-2.8,2.8-2.8c0.5,0,1,0.1,1.4,0.4c2.4,1.5,4.7,2.2,6.7,2.2
			c2,0,3-0.7,3-1.9v-0.1c0-1.5-2.4-2-5.1-2.9c-3.5-1-7.4-2.6-7.4-7.4v-0.1c0-5,4.1-7.9,9.1-7.9c2.6,0,5.3,0.7,7.7,1.9
			c1,0.5,1.7,1.4,1.7,2.6c0,1.6-1.2,2.8-2.8,2.8c-0.5,0-0.8-0.1-1.3-0.3c-2-1-3.9-1.6-5.4-1.6c-1.7,0-2.6,0.7-2.6,1.7v0.1
			c0,1.4,2.4,2,5,3c3.5,1.2,7.5,2.8,7.5,7.4v0.1c0,5.5-4.1,8-9.5,8C1885.5,868.2,1882.2,867.3,1879.2,865.4z"/>
		<path class="st0" d="M1903.8,860.7V849h-0.2c-1.7,0-3-1.3-3-3s1.3-3,3-3h0.2v-3.1c0-1.9,1.6-3.5,3.5-3.5s3.5,1.6,3.5,3.5v3.1h3.1
			c1.7,0,3,1.3,3,3s-1.3,3-3,3h-3.1v10.6c0,1.6,0.7,2.4,2.3,2.4c0.2,0,0.7,0,0.8,0c1.6,0,2.9,1.3,2.9,2.9c0,1.2-0.8,2.3-1.8,2.6
			c-1.3,0.5-2.5,0.7-4,0.7C1906.7,868.2,1903.8,866.5,1903.8,860.7z"/>
		<path class="st0" d="M1920.3,860.6L1920.3,860.6c0-5.5,4.1-8,10-8c2.5,0,4.3,0.4,6.1,1v-0.4c0-2.9-1.8-4.5-5.3-4.5
			c-1.9,0-3.5,0.3-4.9,0.7c-0.4,0.1-0.7,0.2-1,0.2c-1.6,0-2.9-1.2-2.9-2.9c0-1.2,0.8-2.3,1.9-2.7c2.2-0.8,4.6-1.3,7.9-1.3
			c3.8,0,6.6,1,8.4,2.8c1.9,1.8,2.7,4.6,2.7,7.9v11.3c0,1.9-1.5,3.4-3.4,3.4c-2,0-3.4-1.4-3.4-2.9v0c-1.7,1.9-4.1,3.1-7.5,3.1
			C1924.2,868.2,1920.3,865.5,1920.3,860.6z M1936.5,859v-1.2c-1.2-0.6-2.8-0.9-4.5-0.9c-3,0-4.9,1.2-4.9,3.4v0.1c0,1.9,1.6,3,3.8,3
			C1934.3,863.4,1936.5,861.6,1936.5,859z"/>
		<path class="st0" d="M1948,855.5L1948,855.5c0-7.2,5.4-13,13-13c3.7,0,6.4,1,8.5,2.8c0.5,0.4,1.1,1.2,1.1,2.4
			c0,1.8-1.4,3.1-3.2,3.1c-0.9,0-1.6-0.4-2-0.7c-1.2-1-2.5-1.6-4.4-1.6c-3.5,0-6,3.1-6,6.8v0.1c0,3.8,2.5,6.8,6.3,6.8
			c1.8,0,3.3-0.6,4.6-1.7c0.4-0.3,1.1-0.6,1.9-0.6c1.7,0,3,1.3,3,3c0,0.9-0.4,1.7-1,2.2c-2.1,1.9-4.7,3.2-8.8,3.2
			C1953.5,868.3,1948,862.6,1948,855.5z"/>
		<path class="st0" d="M1975.6,837.2c0-1.9,1.6-3.5,3.5-3.5s3.5,1.6,3.5,3.5v15.4l8.8-8.3c1-1,1.9-1.6,3.1-1.6
			c1.9,0,3.1,1.5,3.1,3.1c0,1.2-0.6,2.1-1.6,3.1l-5.5,4.8l6.6,8.9c0.6,0.8,0.9,1.5,0.9,2.3c0,1.9-1.5,3.2-3.3,3.2
			c-1.4,0-2.2-0.5-3.1-1.6l-6.2-8.5l-2.8,2.5v4c0,1.9-1.6,3.5-3.5,3.5s-3.5-1.6-3.5-3.5V837.2z"/>
		<path class="st1" d="M2006.3,860.1c2.3,0,4,1.7,4,3.9v0.1c0,2.2-1.7,3.9-4,3.9s-4-1.7-4-3.9V864
			C2002.3,861.8,2004,860.1,2006.3,860.1z"/>
		<path class="st1" d="M2016,837.1c0-2,1.7-3.3,3.9-3.3c2.2,0,3.9,1.2,3.9,3.3v0.1c0,2-1.7,3.3-3.9,3.3
			C2017.7,840.5,2016,839.2,2016,837.1L2016,837.1z M2016.4,846.2c0-1.9,1.6-3.5,3.5-3.5s3.5,1.6,3.5,3.5v18.3
			c0,1.9-1.6,3.5-3.5,3.5s-3.5-1.6-3.5-3.5V846.2z"/>
		<path class="st1" d="M2030,846.2c0-1.9,1.6-3.5,3.5-3.5s3.5,1.6,3.5,3.5v0.3c1.6-2.1,3.7-4,7.3-4c5.3,0,8.4,3.5,8.4,9.2v12.8
			c0,1.9-1.6,3.5-3.5,3.5c-1.9,0-3.5-1.6-3.5-3.5v-10.6c0-3.3-1.6-5-4.3-5s-4.4,1.7-4.4,5v10.6c0,1.9-1.6,3.5-3.5,3.5
			s-3.5-1.6-3.5-3.5V846.2z"/>
	</g>
</g>
<text transform="matrix(1 0 0 1 2934.875 929.6182)"><tspan x="0" y="0" class="st1" style="font-family:'GothamBold'; font-size:7.7856px;">101- Samruddhi Commercial Premises Limited,</tspan><tspan x="77.1" y="9.3" class="st1" style="font-family:'GothamBold'; font-size:7.7856px;">Mind Space, Malad (West),</tspan><tspan x="113.4" y="18.7" class="st1" style="font-family:'GothamBold'; font-size:7.7856px;">Mumbai- 400064</tspan></text>
<g>
	<g>
		<path class="st0" d="M2852.9,168.1l-7.4-2.7l-2.2,1.1c-1.7,0.8-3.6,0.8-5.3,0l-2.2-1.1l-7.4,2.7c-2.3,0.8-4,2.9-4.4,5.3l-1.5,8.1
			h18.1h18.1l-1.5-8.1C2856.9,171,2855.2,169,2852.9,168.1z"/>
		<path class="st1" d="M2839.9,171c0.7,0.7-1.3,3.5-1.3,6.5c0,3,1,7.1,2.4,10.3s-1.4,3.7-3.4,3.7s-7.6,0-7.6,0l-2,1.6l2,1.2
			c0,0,3.2,0,7.6,0c4.4,0,6.9-2,6.6-4.6s-3.9-8.1-3.8-12.3c0.2-4.2,0.3-5.7,1-6.5S2839.2,170.3,2839.9,171z"/>
		<path class="st1" d="M2778.6,203.6c-0.5,0-1-0.1-1.4-0.2c-0.4-0.1-0.8-0.3-1.1-0.6c-0.3-0.3-0.5-0.6-0.7-1.1
			c-0.2-0.4-0.3-1-0.3-1.7v-5.6h-1.4v-2.9h1.4v-3h3.4v3h2.8v2.9h-2.8v5.1c0,0.8,0.4,1.2,1.1,1.2c0.6,0,1.1-0.1,1.7-0.4v2.7
			c-0.4,0.2-0.7,0.4-1.2,0.5S2779.1,203.6,2778.6,203.6z"/>
		<path class="st1" d="M2787.1,203.6c-0.6,0-1.1-0.1-1.6-0.2c-0.5-0.2-0.9-0.4-1.3-0.7c-0.4-0.3-0.7-0.7-0.9-1.1
			c-0.2-0.4-0.3-1-0.3-1.6v0c0-0.6,0.1-1.2,0.4-1.7c0.2-0.5,0.6-0.9,1-1.2c0.4-0.3,0.9-0.5,1.5-0.7c0.6-0.2,1.2-0.2,1.9-0.2
			c0.6,0,1.1,0,1.6,0.1c0.4,0.1,0.9,0.2,1.3,0.4v-0.2c0-0.7-0.2-1.2-0.6-1.6c-0.4-0.4-1.1-0.6-1.9-0.6c-0.6,0-1.2,0.1-1.7,0.2
			c-0.5,0.1-1,0.3-1.6,0.5l-0.8-2.6c0.6-0.3,1.3-0.5,2-0.7c0.7-0.2,1.6-0.3,2.6-0.3c0.9,0,1.7,0.1,2.4,0.3c0.7,0.2,1.2,0.6,1.6,1
			c0.4,0.4,0.8,1,1,1.6c0.2,0.6,0.3,1.4,0.3,2.2v6.9h-3.3v-1.3c-0.4,0.5-0.9,0.8-1.5,1.1C2788.6,203.4,2787.9,203.6,2787.1,203.6z
			 M2788.1,201.3c0.8,0,1.4-0.2,1.9-0.6c0.5-0.4,0.7-0.9,0.7-1.5v-0.6c-0.3-0.1-0.6-0.2-1-0.3c-0.4-0.1-0.7-0.1-1.2-0.1
			c-0.7,0-1.3,0.1-1.7,0.4c-0.4,0.3-0.6,0.7-0.6,1.2v0c0,0.5,0.2,0.8,0.5,1.1C2787.1,201.1,2787.6,201.3,2788.1,201.3z"/>
		<path class="st1" d="M2797,187.2h3.4v16.1h-3.4V187.2z"/>
		<path class="st1" d="M2809.1,203.6c-0.9,0-1.7-0.1-2.5-0.4c-0.8-0.3-1.4-0.7-2-1.3c-0.6-0.5-1-1.2-1.3-1.9
			c-0.3-0.7-0.5-1.6-0.5-2.5v0c0-0.8,0.1-1.6,0.4-2.4c0.3-0.8,0.7-1.4,1.2-2c0.5-0.6,1.1-1,1.8-1.3c0.7-0.3,1.5-0.5,2.4-0.5
			c1,0,1.8,0.2,2.6,0.5c0.7,0.4,1.3,0.8,1.8,1.4c0.5,0.6,0.8,1.3,1.1,2.1c0.2,0.8,0.3,1.6,0.3,2.4c0,0.1,0,0.3,0,0.4
			c0,0.1,0,0.3,0,0.5h-8.3c0.2,0.8,0.5,1.3,1,1.7c0.5,0.4,1.1,0.6,1.9,0.6c0.6,0,1.1-0.1,1.5-0.3c0.4-0.2,0.9-0.5,1.4-0.9l1.9,1.7
			c-0.6,0.7-1.2,1.2-2,1.6C2811.2,203.4,2810.2,203.6,2809.1,203.6z M2811.3,196.5c-0.1-0.8-0.4-1.4-0.8-1.8c-0.4-0.5-1-0.7-1.7-0.7
			c-0.7,0-1.3,0.2-1.7,0.7c-0.4,0.5-0.7,1.1-0.9,1.8H2811.3z"/>
		<path class="st1" d="M2817.1,191.5h3.4v1.7c0.2-0.3,0.4-0.5,0.6-0.7c0.2-0.2,0.5-0.4,0.8-0.6c0.3-0.2,0.6-0.3,0.9-0.4
			s0.7-0.2,1.2-0.2c1.3,0,2.3,0.4,3,1.2c0.7,0.8,1.1,1.9,1.1,3.2v7.7h-3.4v-6.6c0-0.8-0.2-1.4-0.5-1.8c-0.4-0.4-0.9-0.6-1.5-0.6
			c-0.6,0-1.2,0.2-1.5,0.6c-0.4,0.4-0.6,1-0.6,1.8v6.6h-3.4V191.5z"/>
		<path class="st1" d="M2834.9,203.6c-0.5,0-1-0.1-1.4-0.2c-0.4-0.1-0.8-0.3-1.1-0.6c-0.3-0.3-0.5-0.6-0.7-1.1
			c-0.2-0.4-0.3-1-0.3-1.7v-5.6h-1.4v-2.9h1.4v-3h3.4v3h2.8v2.9h-2.8v5.1c0,0.8,0.4,1.2,1.1,1.2c0.6,0,1.1-0.1,1.7-0.4v2.7
			c-0.4,0.2-0.7,0.4-1.2,0.5C2835.9,203.5,2835.4,203.6,2834.9,203.6z"/>
		<path class="st0" d="M2839.7,202.2c-0.4-0.2-0.6-0.6-0.6-1.2c0-0.8,0.6-1.3,1.3-1.3c0.2,0,0.5,0.1,0.7,0.2
			c1.1,0.7,2.3,1.1,3.2,1.1c1,0,1.4-0.4,1.4-0.9v0c0-0.7-1.2-1-2.5-1.4c-1.7-0.5-3.5-1.3-3.5-3.6v0c0-2.4,1.9-3.8,4.3-3.8
			c1.2,0,2.5,0.3,3.7,0.9c0.5,0.2,0.8,0.7,0.8,1.3c0,0.8-0.6,1.3-1.3,1.3c-0.2,0-0.4,0-0.6-0.2c-1-0.5-1.9-0.8-2.6-0.8
			c-0.8,0-1.2,0.4-1.2,0.8v0c0,0.7,1.1,1,2.4,1.4c1.7,0.6,3.6,1.3,3.6,3.5v0c0,2.6-2,3.8-4.5,3.8
			C2842.7,203.6,2841.2,203.2,2839.7,202.2z"/>
		<path class="st0" d="M2851.5,200v-5.6h-0.1c-0.8,0-1.4-0.6-1.4-1.4c0-0.8,0.6-1.4,1.4-1.4h0.1V190c0-0.9,0.8-1.7,1.7-1.7
			c0.9,0,1.7,0.8,1.7,1.7v1.5h1.5c0.8,0,1.4,0.6,1.4,1.4c0,0.8-0.6,1.4-1.4,1.4h-1.5v5.1c0,0.8,0.3,1.2,1.1,1.2c0.1,0,0.3,0,0.4,0
			c0.8,0,1.4,0.6,1.4,1.4c0,0.6-0.4,1.1-0.9,1.3c-0.6,0.2-1.2,0.3-1.9,0.3C2852.9,203.6,2851.5,202.7,2851.5,200z"/>
		<path class="st0" d="M2859.4,200L2859.4,200c0-2.6,2-3.8,4.8-3.8c1.2,0,2.1,0.2,2.9,0.5v-0.2c0-1.4-0.9-2.2-2.5-2.2
			c-0.9,0-1.7,0.1-2.3,0.3c-0.2,0.1-0.3,0.1-0.5,0.1c-0.8,0-1.4-0.6-1.4-1.4c0-0.6,0.4-1.1,0.9-1.3c1.1-0.4,2.2-0.6,3.8-0.6
			c1.8,0,3.2,0.5,4,1.3c0.9,0.9,1.3,2.2,1.3,3.8v5.4c0,0.9-0.7,1.6-1.6,1.6c-1,0-1.6-0.7-1.6-1.4v0c-0.8,0.9-1.9,1.5-3.6,1.5
			C2861.2,203.6,2859.4,202.3,2859.4,200z M2867.1,199.2v-0.6c-0.6-0.3-1.3-0.4-2.1-0.4c-1.4,0-2.3,0.6-2.3,1.6v0
			c0,0.9,0.8,1.4,1.8,1.4C2866.1,201.3,2867.1,200.4,2867.1,199.2z"/>
		<path class="st0" d="M2872.6,197.5L2872.6,197.5c0-3.4,2.6-6.2,6.2-6.2c1.8,0,3.1,0.5,4,1.3c0.2,0.2,0.5,0.6,0.5,1.2
			c0,0.8-0.7,1.5-1.5,1.5c-0.4,0-0.8-0.2-1-0.3c-0.6-0.5-1.2-0.8-2.1-0.8c-1.7,0-2.9,1.5-2.9,3.2v0c0,1.8,1.2,3.3,3,3.3
			c0.9,0,1.6-0.3,2.2-0.8c0.2-0.1,0.5-0.3,0.9-0.3c0.8,0,1.4,0.6,1.4,1.4c0,0.4-0.2,0.8-0.5,1.1c-1,0.9-2.3,1.5-4.2,1.5
			C2875.2,203.6,2872.6,200.9,2872.6,197.5z"/>
		<path class="st0" d="M2885.8,188.8c0-0.9,0.8-1.7,1.7-1.7c0.9,0,1.7,0.8,1.7,1.7v7.3l4.2-4c0.5-0.5,0.9-0.8,1.5-0.8
			c0.9,0,1.5,0.7,1.5,1.5c0,0.6-0.3,1-0.8,1.5l-2.7,2.3l3.2,4.3c0.3,0.4,0.4,0.7,0.4,1.1c0,0.9-0.7,1.5-1.6,1.5
			c-0.7,0-1.1-0.2-1.5-0.8l-2.9-4l-1.3,1.2v1.9c0,0.9-0.8,1.7-1.7,1.7c-0.9,0-1.7-0.8-1.7-1.7V188.8z"/>
		
			<rect x="2839.4" y="168.8" transform="matrix(0.7071 -0.7071 0.7071 0.7071 711.7624 2058.4473)" class="st1" width="2.4" height="2.4"/>
		<path class="st10" d="M2844.9,167.4"/>
		<path class="st10" d="M2836.9,167.4"/>
		<g>
			<path class="st1" d="M2838.8,170.2c-0.2,0.3-0.4,0.6-0.7,0.8l-0.1,0.1l-0.1-0.1c-0.8-0.7-1.5-1.5-2.1-2.3
				c0.8,0.7,1.6,1.4,2.3,2.1h-0.1C2838.2,170.7,2838.5,170.4,2838.8,170.2z"/>
		</g>
		<g>
			<path class="st1" d="M2842.5,170.2c0.3,0.2,0.6,0.4,0.8,0.7h-0.1c0.7-0.8,1.5-1.5,2.3-2.1c-0.7,0.8-1.4,1.6-2.1,2.3l-0.1,0.1
				l-0.1-0.1C2842.9,170.8,2842.7,170.5,2842.5,170.2z"/>
		</g>
		<path class="st1" d="M2832.3,156.8c0-4.9,3.7-8.9,8.4-8.9s8.4,4,8.4,8.9c0,4.9-4.1,9.2-8.4,9.2
			C2836.8,166,2832.3,161.7,2832.3,156.8z"/>
		<path class="st0" d="M2840.6,163c2,0,3.6-1.5,3.6-2.4h-7.2C2837.1,161.8,2838.7,163,2840.6,163z"/>
	</g>
	<text transform="matrix(1 0 0 1 2774.6787 219.3841)" class="st1" style="font-family:'GothamBold'; font-size:12.6661px;">DA People&apos;s Group</text>
</g>
<polygon class="st1" points="3133,213.8 3133,238.2 3111,238.2 3122,226 "/>
<polygon class="st0" points="2537.7,143.5 2537.7,119.1 2559.7,119.1 2548.7,131.3 "/>
</svg>
